<?xml version="1.0" standalone="no"?>
<!DOCTYPE svg PUBLIC "-//W3C//DTD SVG 20010904//EN"
 "http://www.w3.org/TR/2001/REC-SVG-20010904/DTD/svg10.dtd">
<svg version="1.0" xmlns="http://www.w3.org/2000/svg"
 width="512.000000pt" height="95.000000pt" viewBox="0 0 512.000000 95.000000"
 preserveAspectRatio="xMidYMid meet">
<metadata>
Created by potrace 1.10, written by Peter Selinger 2001-2011
</metadata>
<g transform="translate(0.000000,95.000000) scale(0.100000,-0.100000)"
fill="#f50f0f" stroke="none">
<path d="M35 849 c58 -114 233 -259 514 -424 46 -28 108 -72 138 -99 29 -26
53 -45 53 -41 0 17 -76 108 -123 149 -29 24 -104 78 -167 119 -171 113 -223
153 -338 256 l-104 93 27 -53z"/>
<path d="M486 835 c-46 -16 -89 -56 -111 -100 -31 -67 -26 -73 113 -167 123
-82 130 -85 158 -73 16 7 37 22 47 33 19 20 18 21 -15 51 -30 27 -35 28 -50
14 -9 -8 -35 -17 -57 -20 -35 -5 -44 -2 -71 25 -50 51 -38 121 26 148 32 13
39 13 78 -5 l44 -19 34 29 33 29 -28 24 c-48 44 -129 57 -201 31z"/>
<path d="M1255 836 c-80 -30 -134 -122 -119 -204 14 -80 65 -129 156 -152 130
-33 266 88 242 215 -8 46 -55 110 -95 131 -45 23 -135 28 -184 10z m151 -119
c69 -82 -44 -194 -129 -127 -47 38 -44 124 6 148 55 26 88 21 123 -21z"/>
<path d="M2624 836 c-41 -18 -64 -52 -64 -96 1 -50 26 -77 105 -108 38 -16 71
-34 73 -40 2 -6 -8 -17 -22 -23 -21 -10 -33 -8 -76 13 l-50 25 -25 -33 c-14
-18 -25 -35 -25 -39 0 -3 24 -17 53 -30 133 -63 274 -2 253 108 -8 45 -28 61
-106 89 -51 18 -65 28 -65 43 0 27 41 32 82 9 33 -17 34 -17 58 6 35 33 31 48
-17 70 -50 23 -129 25 -174 6z"/>
<path d="M770 660 l0 -180 55 0 55 0 0 65 c0 86 17 84 79 -7 35 -53 85 -77
121 -58 31 16 23 90 -10 90 -10 0 -25 11 -34 26 -17 24 -16 26 13 60 35 39 40
78 16 124 -25 49 -60 60 -185 60 l-110 0 0 -180z m194 78 c17 -27 -5 -52 -48
-56 l-36 -3 0 41 0 41 36 -3 c22 -2 42 -10 48 -20z"/>
<path d="M1550 828 c1 -7 29 -87 63 -178 62 -164 63 -165 95 -168 36 -4 29
-13 83 126 13 34 27 62 30 62 4 0 15 -21 25 -47 53 -145 49 -138 85 -141 l34
-3 43 118 c24 65 54 146 67 181 l24 62 -54 0 -54 0 -28 -87 c-15 -49 -33 -89
-38 -90 -6 -1 -23 38 -40 85 -30 86 -30 87 -64 87 -33 0 -34 -1 -65 -87 -17
-47 -34 -89 -38 -93 -3 -4 -19 35 -35 87 l-29 93 -52 3 c-38 2 -52 -1 -52 -10z"/>
<path d="M2150 660 l0 -180 103 0 c181 1 249 50 251 180 1 75 -27 127 -84 157
-38 20 -58 23 -157 23 l-113 0 0 -180z m213 80 c32 -26 44 -79 27 -121 -15
-36 -35 -48 -89 -52 l-41 -3 0 98 0 98 39 0 c23 0 48 -8 64 -20z"/>
<path d="M2880 800 l0 -40 55 0 55 0 0 -140 0 -140 55 0 55 0 0 140 0 140 55
0 55 0 0 40 0 40 -165 0 -165 0 0 -40z"/>
<path d="M3250 660 l0 -180 55 0 55 0 0 66 c0 57 2 65 18 62 9 -2 32 -31 50
-66 l33 -62 55 0 c29 0 54 3 54 7 0 3 -16 35 -36 70 l-35 63 30 26 c39 32 49
80 26 127 -25 54 -63 67 -194 67 l-111 0 0 -180z m191 90 c21 -12 25 -40 7
-58 -7 -7 -29 -12 -50 -12 -38 0 -38 0 -38 40 0 38 2 40 31 40 17 0 39 -5 50
-10z"/>
<path d="M3640 660 l0 -180 50 0 50 0 0 180 0 180 -50 0 -50 0 0 -180z"/>
<path d="M3820 660 l0 -180 55 0 54 0 3 62 c2 36 8 63 15 65 7 3 31 -25 55
-61 l43 -66 58 0 c31 0 57 3 57 6 0 3 -30 48 -66 100 -57 82 -64 97 -53 112 7
9 32 40 54 67 64 77 64 75 -4 75 l-60 0 -48 -62 -48 -63 -3 63 -3 62 -54 0
-55 0 0 -180z"/>
<path d="M4200 660 l0 -180 141 0 140 0 -3 42 -3 43 -80 0 c-79 0 -80 0 -83
27 -3 27 -2 27 60 30 l63 3 3 38 3 37 -65 0 -66 0 0 30 0 30 80 0 80 0 0 40 0
40 -135 0 -135 0 0 -180z"/>
<path d="M86 639 c55 -98 197 -205 432 -324 83 -42 170 -93 193 -113 29 -25
38 -29 31 -15 -22 40 -109 108 -221 173 -207 120 -291 175 -373 244 -71 60
-78 64 -62 35z"/>
</g>
</svg>
