<svg width="103" height="26" viewBox="0 0 103 26" fill="none" xmlns="http://www.w3.org/2000/svg">
<path fill-rule="evenodd" clip-rule="evenodd" d="M7.22412 8.26507L12.2782 5.94727L17.332 8.26507L12.2782 10.5826L7.22412 8.26507Z" fill="#308AFF"/>
<path fill-rule="evenodd" clip-rule="evenodd" d="M0.681396 5.29138L5.7355 2.97388L10.7893 5.29138L5.7355 7.60918L0.681396 5.29138Z" fill="#308AFF"/>
<path fill-rule="evenodd" clip-rule="evenodd" d="M13.7666 5.29138L18.8207 2.97388L23.8745 5.29138L18.8207 7.60918L13.7666 5.29138Z" fill="#308AFF"/>
<path fill-rule="evenodd" clip-rule="evenodd" d="M12.2779 0L7.22412 2.3178L12.2779 4.635L17.332 2.3178L12.2779 0Z" fill="#308AFF"/>
<path fill-rule="evenodd" clip-rule="evenodd" d="M6.42285 15.6739V9.41138L11.5946 11.8348V18.0973L6.42285 15.6739Z" fill="#308AFF"/>
<path fill-rule="evenodd" clip-rule="evenodd" d="M12.9995 11.8346L18.1163 9.41235V15.6746L12.9995 18.0965V11.8346Z" fill="#308AFF"/>
<path fill-rule="evenodd" clip-rule="evenodd" d="M19.2935 8.88729L24.5429 6.46509V12.7273L19.2935 15.1492V8.88729Z" fill="#308AFF"/>
<path fill-rule="evenodd" clip-rule="evenodd" d="M6.42285 23.2684L11.5949 25.6918V19.4293L6.42285 17.0056V23.2684Z" fill="#308AFF"/>
<path fill-rule="evenodd" clip-rule="evenodd" d="M0 12.7262L5.2668 15.1493V8.88708L0 6.46338V12.7262Z" fill="#308AFF"/>
<path fill-rule="evenodd" clip-rule="evenodd" d="M0 20.2652L5.2668 22.6889V16.4264L0 14.0027V20.2652Z" fill="#308AFF"/>
<path fill-rule="evenodd" clip-rule="evenodd" d="M12.9995 19.4287V25.6909L18.1163 23.269V17.0068L12.9995 19.4287Z" fill="#308AFF"/>
<path fill-rule="evenodd" clip-rule="evenodd" d="M32.4114 18.8599H34.323V7.53613H32.4114V18.8599Z" fill="#D3DBE6"/>
<path fill-rule="evenodd" clip-rule="evenodd" d="M45.9546 7.53613H47.8662V18.8599H45.7926L39.3774 10.5979V18.8599H37.4658V7.53613H39.3774L45.9546 15.9925V7.53613Z" fill="#D3DBE6"/>
<path fill-rule="evenodd" clip-rule="evenodd" d="M55.2859 9.28573V18.8599H53.3743V9.28573H49.9399V7.53613H58.72V9.28573H55.2859Z" fill="#D3DBE6"/>
<path fill-rule="evenodd" clip-rule="evenodd" d="M68.7477 7.53613V9.33433H62.7048V12.3313H68.1321V14.0323H62.7048V17.0617H68.9418V18.8599H60.7932V7.53613H68.7477Z" fill="#D3DBE6"/>
<path fill-rule="evenodd" clip-rule="evenodd" d="M77.1718 9.28573H70.789V7.53613H79.8283V9.02653L73.2514 17.0455V17.0941H79.9258V18.8599H70.5781V17.3857L77.1718 9.33433V9.28573Z" fill="#D3DBE6"/>
<path fill-rule="evenodd" clip-rule="evenodd" d="M90.2772 7.53613V9.33433H84.2346V12.3313H89.6616V14.0323H84.2346V17.0617H90.4716V18.8599H82.323V7.53613H90.2772Z" fill="#D3DBE6"/>
<mask id="mask0_404_137" style="mask-type:alpha" maskUnits="userSpaceOnUse" x="92" y="7" width="11" height="12">
<path fill-rule="evenodd" clip-rule="evenodd" d="M92.9177 7.53638H102.476V18.8602H92.9177V7.53638Z" fill="white"/>
</mask>
<g mask="url(#mask0_404_137)">
<path fill-rule="evenodd" clip-rule="evenodd" d="M99.4139 12.8176C99.8027 12.4828 99.9968 11.9455 99.9968 11.2057C99.9968 10.4659 99.797 9.95828 99.3974 9.68288C98.9978 9.40748 98.285 9.26978 97.259 9.26978H94.8293V13.3198H97.2104C98.2904 13.3198 99.0251 13.1524 99.4139 12.8176ZM101.957 11.2135C101.957 13.0822 101.142 14.2594 99.5108 14.7454L102.476 18.8602H100.045L97.3403 15.0529H94.8293V18.8602H92.9177V7.53638H97.1297C98.8577 7.53638 100.094 7.82768 100.84 8.41118C101.584 8.99438 101.957 9.92858 101.957 11.2135Z" fill="#D3DBE6"/>
</g>
</svg>
