<?xml version="1.0" encoding="UTF-8" standalone="no"?>
<svg
   width="299.38589"
   height="75.059166"
   viewBox="0 0 299.38589 75.059166"
   fill="none"
   version="1.1"
   id="svg19"
   xmlns="http://www.w3.org/2000/svg"
   xmlns:svg="http://www.w3.org/2000/svg">
  <defs
     id="defs19" />
  <path
     fill-rule="evenodd"
     clip-rule="evenodd"
     d="m 21.105427,24.146586 14.765607,-6.771504 14.76479,6.771504 -14.76479,6.770715 z"
     fill="#308aff"
     id="path1"
     style="stroke-width:2.92152" />
  <path
     fill-rule="evenodd"
     clip-rule="evenodd"
     d="M 1.9907136,15.458884 16.756391,8.6882566 31.52118,15.458884 16.756391,22.230389 Z"
     fill="#308aff"
     id="path2"
     style="stroke-width:2.92152" />
  <path
     fill-rule="evenodd"
     clip-rule="evenodd"
     d="M 40.219428,15.458884 54.985094,8.6882566 69.749883,15.458884 54.985094,22.230389 Z"
     fill="#308aff"
     id="path3"
     style="stroke-width:2.92152" />
  <path
     fill-rule="evenodd"
     clip-rule="evenodd"
     d="M 35.870158,0 21.105427,6.7715043 35.870158,13.541256 50.635824,6.7715043 Z"
     fill="#308aff"
     id="path4"
     style="stroke-width:2.92152" />
  <path
     fill-rule="evenodd"
     clip-rule="evenodd"
     d="M 18.764499,45.791648 V 27.495556 l 15.109383,7.080076 v 18.296033 z"
     fill="#308aff"
     id="path5"
     style="stroke-width:2.92152" />
  <path
     fill-rule="evenodd"
     clip-rule="evenodd"
     d="M 37.978328,34.575047 52.927174,27.49839 v 18.295303 l -14.948846,7.075634 z"
     fill="#308aff"
     id="path6"
     style="stroke-width:2.92152" />
  <path
     fill-rule="evenodd"
     clip-rule="evenodd"
     d="M 56.36639,25.964415 71.702628,18.887904 V 37.18309 L 56.36639,44.258725 Z"
     fill="#308aff"
     id="path7"
     style="stroke-width:2.92152" />
  <path
     fill-rule="evenodd"
     clip-rule="evenodd"
     d="m 18.764499,67.979148 15.110259,7.080017 V 56.763132 L 18.764499,49.682239 Z"
     fill="#308aff"
     id="path8"
     style="stroke-width:2.92152" />
  <path
     fill-rule="evenodd"
     clip-rule="evenodd"
     d="m 0,37.179876 15.387073,7.079141 V 25.963802 L 0,18.882908 Z"
     fill="#308aff"
     id="path9"
     style="stroke-width:2.92152" />
  <path
     fill-rule="evenodd"
     clip-rule="evenodd"
     d="m 0,59.205233 15.387073,7.080893 V 47.990093 L 0,40.9092 Z"
     fill="#308aff"
     id="path10"
     style="stroke-width:2.92152" />
  <path
     fill-rule="evenodd"
     clip-rule="evenodd"
     d="M 37.978328,56.761379 V 75.056536 L 52.927174,67.980901 V 49.685745 Z"
     fill="#308aff"
     id="path11"
     style="stroke-width:2.92152" />
  <path
     fill-rule="evenodd"
     clip-rule="evenodd"
     d="m 94.690626,55.099617 h 5.584784 V 22.016971 h -5.584784 z"
     fill="#d3dbe6"
     id="path12"
     style="stroke-width:2.92152" />
  <path
     fill-rule="evenodd"
     clip-rule="evenodd"
     d="m 134.25739,22.016971 h 5.58478 V 55.099617 H 133.7841 L 115.04195,30.962001 v 24.137616 h -5.58478 V 22.016971 h 5.58478 l 19.21544,24.705474 z"
     fill="#d3dbe6"
     id="path13"
     style="stroke-width:2.92152" />
  <path
     fill-rule="evenodd"
     clip-rule="evenodd"
     d="m 161.51899,27.128467 v 27.97115 h -5.58479 v -27.97115 h -10.03367 v -5.111496 h 25.65126 v 5.111496 z"
     fill="#d3dbe6"
     id="path14"
     style="stroke-width:2.92152" />
  <path
     fill-rule="evenodd"
     clip-rule="evenodd"
     d="m 200.84794,22.016971 v 5.253482 h -17.65447 v 8.755714 h 15.85598 v 4.96951 h -15.85598 v 8.850459 H 201.415 v 5.253481 H 177.60869 V 22.016971 Z"
     fill="#d3dbe6"
     id="path15"
     style="stroke-width:2.92152" />
  <path
     fill-rule="evenodd"
     clip-rule="evenodd"
     d="m 225.45913,27.128467 h -18.64749 v -5.111496 h 26.40851 v 4.354237 l -19.21456,23.427599 v 0.141986 H 233.505 v 5.158824 h -27.30951 v -4.306908 l 19.26364,-23.522256 z"
     fill="#d3dbe6"
     id="path16"
     style="stroke-width:2.92152" />
  <path
     fill-rule="evenodd"
     clip-rule="evenodd"
     d="m 263.74685,22.016971 v 5.253482 h -17.65359 v 8.755714 h 15.8551 v 4.96951 h -15.8551 v 8.850459 h 18.22153 v 5.253481 H 240.50848 V 22.016971 Z"
     fill="#d3dbe6"
     id="path17"
     style="stroke-width:2.92152" />
  <mask
     id="mask0_404_137"
     maskUnits="userSpaceOnUse"
     x="92"
     y="7"
     width="11"
     height="12">
    <path
       fill-rule="evenodd"
       clip-rule="evenodd"
       d="m 92.9177,7.53638 h 9.5583 V 18.8602 h -9.5583 z"
       fill="#ffffff"
       id="path18" />
  </mask>
  <g
     mask="url(#mask0_404_137)"
     id="g19"
     transform="scale(2.9215222)">
    <path
       fill-rule="evenodd"
       clip-rule="evenodd"
       d="m 99.4139,12.8176 c 0.3888,-0.3348 0.5829,-0.8721 0.5829,-1.6119 0,-0.7398 -0.1998,-1.24742 -0.5994,-1.52282 -0.3996,-0.2754 -1.1124,-0.4131 -2.1384,-0.4131 h -2.4297 v 4.05002 h 2.3811 c 1.08,0 1.8147,-0.1674 2.2035,-0.5022 z m 2.5431,-1.6041 c 0,1.8687 -0.815,3.0459 -2.4462,3.5319 l 2.9652,4.1148 h -2.431 l -2.7047,-3.8073 h -2.511 v 3.8073 H 92.9177 V 7.53638 h 4.212 c 1.728,0 2.9643,0.2913 3.7103,0.8748 0.744,0.5832 1.117,1.5174 1.117,2.80232 z"
       fill="#d3dbe6"
       id="path19" />
  </g>
  <path
     style="fill:#000000;stroke-width:0.448542"
     d="M 95.090892,38.574607 V 22.202826 h 2.466981 2.466977 v 16.371781 16.371781 h -2.466977 -2.466981 z"
     id="path20" />
  <path
     style="fill:#000000;stroke-width:0.448542"
     d="M 109.44423,38.574607 V 22.202826 l 2.80339,0.018 2.80339,0.018 9.64365,12.429042 9.64365,12.429042 0.11923,-12.447039 0.11923,-12.447039 h 2.45989 2.45988 v 16.371781 16.371781 l -2.80338,-0.0052 -2.80339,-0.0052 -9.41938,-12.151212 -9.41938,-12.151212 -0.11935,12.156372 -0.11934,12.156372 h -2.68404 -2.68405 z"
     id="path21" />
  <path
     style="fill:#000000;stroke-width:0.448542"
     d="m 156.0926,41.041588 v -13.9048 h -4.93396 -4.93397 v -2.466981 -2.466981 h 12.55918 12.55917 v 2.466981 2.466981 h -4.93396 -4.93396 v 13.9048 13.9048 h -2.69125 -2.69125 z"
     id="path22" />
  <path
     style="fill:#000000;stroke-width:0.448542"
     d="M 177.62261,38.574607 V 22.202826 h 11.43782 11.43782 v 2.466981 2.466981 h -8.74657 -8.74657 v 4.485419 4.48542 h 7.84949 7.84948 v 2.242709 2.24271 h -7.84948 -7.84949 v 4.70969 4.709691 h 9.19511 9.19511 v 2.466981 2.46698 h -11.88636 -11.88636 z"
     id="path23" />
  <path
     style="fill:#000000;stroke-width:0.448542"
     d="m 206.32929,52.967863 c 0,-1.912081 0.32444,-2.375273 9.66072,-13.792665 l 9.66072,-11.814139 -9.21218,-0.121236 -9.21217,-0.121236 v -2.45788 -2.457881 h 13.00772 13.00771 v 1.918628 c 0,1.8357 -0.41682,2.42595 -9.64365,13.656032 -5.30401,6.455572 -9.64365,11.84935 -9.64365,11.986172 0,0.136823 4.33964,0.248769 9.64365,0.248769 h 9.64365 v 2.466981 2.46698 h -13.45626 -13.45626 z"
     id="path24" />
  <path
     style="fill:#000000;stroke-width:0.448542"
     d="M 240.86702,38.574607 V 22.202826 h 11.43782 11.43782 v 2.466981 2.466981 h -8.97084 -8.97083 v 4.485419 4.48542 h 8.07375 8.07376 v 2.23236 2.232359 l -7.96162,0.122486 -7.96162,0.122485 -0.12783,4.597555 -0.12783,4.597555 h 9.2108 9.21081 v 2.466981 2.46698 h -11.66209 -11.6621 z"
     id="path25" />
  <path
     style="fill:#000000;stroke-width:0.448542"
     d="M 271.81642,38.574607 V 22.202826 l 7.51308,0.0093 c 11.50015,0.01431 15.20142,1.166451 17.26132,5.373156 1.38363,2.825623 1.34034,7.555897 -0.0963,10.52361 -0.92325,1.907178 -3.51768,4.177201 -5.54744,4.853787 -0.2659,0.08863 1.37625,2.718905 3.64921,5.845052 2.27295,3.126147 4.13265,5.795055 4.13265,5.930907 0,0.135852 -1.45992,0.1877 -3.24426,0.115217 l -3.24425,-0.131786 -3.82028,-5.476137 -3.82029,-5.476137 -3.92474,-0.0185 -3.92474,-0.0185 v 5.606774 5.606774 h -2.46698 -2.46698 z m 15.74661,0.172151 c 2.88905,-0.61959 4.29134,-2.029151 4.69471,-4.719059 0.43725,-2.915753 -0.51238,-5.107697 -2.67201,-6.167543 -1.37967,-0.677082 -2.81447,-0.856649 -7.16801,-0.897084 l -5.44307,-0.05055 -0.12479,6.167451 -0.1248,6.167452 h 4.25173 c 2.33845,0 5.30226,-0.225298 6.58624,-0.500662 z"
     id="path26" />
</svg>
