<svg version="1.1" id="Layer_1" xmlns="http://www.w3.org/2000/svg" xmlns:xlink="http://www.w3.org/1999/xlink" x="0px" y="0px"
	 width="100%" viewBox="0 0 690 362" enable-background="new 0 0 690 362" xml:space="preserve">
<path fill="#000000" opacity="1.000000" stroke="none" 
	d="
M432.000000,363.000000 
	C288.034088,363.000000 144.568146,363.000000 1.051114,363.000000 
	C1.051114,242.396088 1.051114,121.792137 1.051114,1.094095 
	C230.882614,1.094095 460.765289,1.094095 690.823975,1.094095 
	C690.823975,121.666466 690.823975,242.333206 690.823975,363.000000 
	C604.792053,363.000000 518.646057,363.000000 432.000000,363.000000 
M387.596649,288.054779 
	C396.768524,284.517792 405.266418,279.868439 413.228302,274.006775 
	C431.872375,260.280731 445.518585,242.988586 453.066101,220.957352 
	C457.724335,207.359924 460.566315,193.652847 460.150421,179.080093 
	C459.836151,168.068954 456.992310,157.904343 454.191315,147.462799 
	C450.023926,131.927292 441.972717,118.666031 431.310883,107.209373 
	C423.699158,99.030228 414.624298,92.095436 405.636963,85.359749 
	C400.610931,81.592903 394.695496,78.524948 388.708862,76.645020 
	C380.298065,74.003838 371.390503,72.993309 362.801331,70.859039 
	C352.193604,68.223213 341.649963,69.179398 330.920410,69.834595 
	C318.283722,70.606262 306.386932,74.154251 295.513702,79.649185 
	C285.321472,84.799957 275.801880,91.928627 267.307190,99.641655 
	C254.223312,111.521606 244.816299,126.089561 238.744598,143.049622 
	C232.086517,161.647583 230.087952,180.481796 233.201782,199.722046 
	C235.400803,213.309616 239.360489,226.499634 246.739487,238.473480 
	C253.891815,250.079498 262.303131,260.378143 272.655334,269.394714 
	C284.648407,279.840424 298.324036,287.430817 313.201935,291.550903 
	C328.440094,295.770721 344.474457,298.243317 360.505341,294.920166 
	C369.384094,293.079559 378.142944,290.660431 387.596649,288.054779 
z"/>
<path fill="#039DDF" opacity="1.000000" stroke="none" 
	d="
M387.276245,288.278442 
	C378.142944,290.660431 369.384094,293.079559 360.505341,294.920166 
	C344.474457,298.243317 328.440094,295.770721 313.201935,291.550903 
	C298.324036,287.430817 284.648407,279.840424 272.655334,269.394714 
	C262.303131,260.378143 253.891815,250.079498 246.739487,238.473480 
	C239.360489,226.499634 235.400803,213.309616 233.201782,199.722046 
	C230.087952,180.481796 232.086517,161.647583 238.744598,143.049622 
	C244.816299,126.089561 254.223312,111.521606 267.307190,99.641655 
	C275.801880,91.928627 285.321472,84.799957 295.513702,79.649185 
	C306.386932,74.154251 318.283722,70.606262 330.920410,69.834595 
	C341.649963,69.179398 352.193604,68.223213 362.801331,70.859039 
	C371.390503,72.993309 380.298065,74.003838 388.708862,76.645020 
	C394.695496,78.524948 400.610931,81.592903 405.636963,85.359749 
	C414.624298,92.095436 423.699158,99.030228 431.310883,107.209373 
	C441.972717,118.666031 450.023926,131.927292 454.191315,147.462799 
	C456.992310,157.904343 459.836151,168.068954 460.150421,179.080093 
	C460.566315,193.652847 457.724335,207.359924 453.066101,220.957352 
	C445.518585,242.988586 431.872375,260.280731 413.228302,274.006775 
	C405.266418,279.868439 396.768524,284.517792 387.276245,288.278442 
M288.305695,186.353943 
	C288.589844,186.575241 288.873993,186.796524 289.509430,187.056946 
	C289.509430,187.056946 289.831573,187.202301 290.206116,187.530518 
	C290.470703,187.734634 290.760925,187.891251 291.002228,188.002090 
	C291.002228,188.002090 291.000671,187.927582 291.311249,188.585281 
	C295.630890,190.698410 300.055511,189.689896 302.996613,185.985580 
	C302.996613,185.985580 302.933716,185.992722 303.413910,185.682709 
	C303.613647,185.361862 303.813354,185.041016 304.111023,184.363358 
	C304.255371,184.130096 304.464569,184.019318 305.435333,183.945923 
	C307.314545,184.284164 309.193787,184.622421 311.019501,185.002808 
	C311.019501,185.002808 311.015259,184.934952 311.299072,185.411392 
	C311.605652,185.611618 311.912262,185.811844 312.454773,186.024567 
	C312.454773,186.024567 312.655701,186.148926 313.090302,186.569702 
	C313.458893,186.722672 313.827484,186.875626 314.585602,187.166855 
	C314.830444,187.335373 314.964172,187.567810 315.637299,188.361618 
	C319.657837,188.694138 324.177368,191.345871 327.002380,185.981293 
	C327.002380,185.981293 326.932434,185.980026 327.382111,185.746567 
	C327.579865,185.477737 327.777618,185.208908 327.977081,185.004913 
	C327.977081,185.004913 327.933350,184.954376 328.662445,184.861908 
	C330.285797,181.097946 331.909119,177.333969 334.027069,172.423172 
	C334.027069,176.636642 333.794464,179.781845 334.117249,182.868973 
	C334.300995,184.626312 335.392151,186.288773 335.983856,188.003220 
	C335.983856,188.003220 335.973602,187.912476 336.490997,188.355576 
	C340.873810,189.149063 340.639801,185.927979 341.023254,183.188187 
	C341.645996,178.739059 342.321503,174.297318 343.026581,169.966949 
	C343.026581,169.966949 342.912506,170.019745 343.312531,169.524475 
	C343.198578,167.318863 343.084625,165.113266 342.977325,162.977814 
	C342.977325,162.977814 342.906860,162.976364 343.385345,162.855026 
	C343.645996,162.250214 343.906616,161.645401 343.762787,160.326080 
	C341.453613,160.516815 339.144409,160.707550 336.177032,161.127792 
	C333.432037,164.106140 330.687042,167.084488 327.965546,170.005310 
	C327.965546,170.005310 327.975769,170.058105 327.745392,169.607086 
	C327.474976,169.411789 327.204529,169.216492 327.003540,169.023026 
	C327.003540,169.023026 326.956360,169.074432 326.858398,168.387390 
	C322.186523,163.210724 316.255676,163.484863 311.996307,169.016937 
	C311.996307,169.016937 312.065552,169.026352 311.601257,169.240707 
	C311.409149,169.516083 311.217072,169.791458 311.017120,169.996933 
	C311.017120,169.996933 311.073517,170.039551 310.473633,170.181885 
	C308.208038,173.866180 306.095917,170.411011 303.979614,170.020035 
	C303.979614,170.020035 303.959290,170.082352 303.845490,169.369843 
	C299.855103,163.707397 291.673004,163.543655 289.008881,169.012314 
	C289.008881,169.012314 289.071014,169.021149 288.487030,169.112717 
	C288.008789,169.437363 287.530548,169.762009 286.952271,170.861786 
	C283.818024,175.548721 284.160828,180.216476 287.303772,185.318222 
	C287.565582,185.548126 287.827362,185.778046 287.992920,186.007828 
	C287.992920,186.007828 287.992859,185.911591 288.305695,186.353943 
M373.996338,185.994202 
	C373.996338,185.994202 374.023041,185.944168 374.254669,186.596863 
	C375.252380,187.078476 376.250122,187.560104 377.531586,188.055328 
	C377.531586,188.055328 377.780731,188.191818 378.217926,188.791077 
	C384.347504,192.139633 388.422638,187.608582 393.282898,184.814438 
	C394.174622,185.789566 395.149567,186.855698 396.049927,187.949402 
	C396.049927,187.949402 396.077576,187.874756 396.451874,188.467743 
	C400.577637,190.331268 401.853058,189.732101 401.922699,185.308762 
	C402.033783,178.252655 401.942139,171.186234 401.653534,164.135742 
	C401.575989,162.242294 400.919006,159.937805 399.661713,158.706848 
	C399.011658,158.070435 396.463257,159.373001 394.772522,159.799530 
	C395.278320,161.565826 395.784149,163.332123 396.462921,165.702438 
	C395.790649,167.194855 394.714081,169.584808 393.676666,171.887817 
	C392.495758,171.311356 391.199951,170.678802 389.951782,170.002899 
	C389.951782,170.002899 389.978729,170.061325 389.745422,169.611938 
	C389.476074,169.415192 389.206757,169.218460 388.998383,169.024399 
	C388.998383,169.024399 388.957977,169.070160 388.831299,168.352859 
	C384.210632,163.506363 377.239990,163.849030 374.003174,169.016495 
	C374.003174,169.016495 374.069031,168.998230 373.656860,169.301697 
	C373.434998,169.559830 373.213135,169.817978 373.006226,170.000992 
	C373.006226,170.000992 373.081360,170.016083 372.461639,170.174789 
	C370.393799,170.667664 370.452179,175.307251 367.001892,172.988815 
	C367.001892,172.988815 366.987793,173.041031 367.028473,172.532852 
	C367.035706,172.363190 367.042908,172.193542 367.057556,171.283463 
	C365.685730,170.191315 364.313904,169.099167 363.006989,168.000336 
	C363.006989,168.000336 363.002960,168.065460 362.820892,167.379532 
	C361.107147,166.730881 359.426239,165.699783 357.669739,165.549026 
	C356.137848,165.417542 354.521637,166.635391 352.941162,166.639359 
	C346.030914,166.656647 346.028809,166.575012 345.988495,173.355743 
	C345.971802,176.166092 345.821442,178.985001 345.987091,181.784927 
	C346.246674,186.173569 346.722809,190.549423 347.810883,195.281815 
	C349.091644,195.540115 350.372406,195.798431 351.836578,196.093719 
	C351.978271,193.645126 352.082062,191.851471 352.660431,189.585037 
	C353.839294,189.075974 355.018158,188.566895 356.577057,188.067123 
	C356.577057,188.067123 356.920746,188.229462 357.548157,188.511612 
	C359.039612,188.321182 360.531067,188.130753 362.018433,188.007874 
	C362.018433,188.007874 361.951324,187.999069 362.625427,187.927399 
	C363.417480,187.264893 364.209534,186.602386 365.011322,186.008179 
	C365.011322,186.008179 364.942688,186.015335 365.391785,185.745895 
	C365.598175,185.467590 365.804565,185.189270 365.996613,184.992416 
	C365.996613,184.992416 365.915192,184.977921 366.533813,184.757675 
	C367.496796,183.945358 368.459747,183.133057 369.387207,182.350708 
	C370.747162,183.319275 371.909454,184.147095 373.011444,184.994095 
	C373.011444,184.994095 373.011902,184.930832 373.243408,185.385712 
	C373.513123,185.586090 373.782867,185.786469 373.996338,185.994202 
M247.946228,172.773438 
	C247.946228,180.345978 247.946228,187.918533 247.946228,196.038956 
	C253.246765,193.705597 249.601761,189.067673 251.718826,186.057510 
	C252.840500,186.388153 254.052597,186.755142 255.270233,187.102646 
	C259.845856,188.408615 264.759979,186.664154 266.053497,183.280899 
	C268.609711,176.595016 266.955841,170.212524 262.035278,168.003387 
	C261.020966,167.547989 259.806366,166.950043 258.817230,167.133942 
	C255.404526,167.768356 252.050735,168.719589 248.078262,169.696838 
	C248.086639,169.542175 248.024063,170.697357 247.946228,172.773438 
M409.070404,176.893112 
	C409.229797,176.257568 409.499329,175.627426 409.530884,174.985596 
	C409.749237,170.544067 412.852173,170.907074 415.915833,171.028717 
	C420.050476,171.192886 418.855865,174.281708 418.929321,176.541214 
	C419.051819,180.308243 418.962769,184.082138 418.962769,187.695160 
	C422.891052,188.537903 424.213867,187.141022 424.074097,183.844818 
	C423.940186,180.686996 424.067352,177.518845 424.042480,174.355515 
	C423.998871,168.810928 422.915680,167.733719 417.214050,168.009598 
	C413.628662,168.183090 410.057251,168.646027 406.214905,169.003738 
	C406.214905,174.670578 406.214905,181.038895 406.214905,187.607132 
	C407.673065,187.135910 408.842041,186.758163 409.058777,186.688126 
	C409.058777,183.285599 409.058777,180.529877 409.070404,176.893112 
M430.967407,183.158829 
	C431.425018,188.709915 432.637299,189.170410 436.754974,186.491364 
	C435.769073,184.048370 434.062103,181.799500 434.167297,179.638870 
	C434.348389,175.919891 431.375427,170.688126 438.886871,168.726440 
	C433.369629,168.486328 433.523834,165.518402 434.518768,162.117523 
	C434.096649,161.887665 433.674500,161.657822 433.252380,161.427979 
	C431.495941,163.942734 429.739532,166.457504 428.753113,167.869812 
	C429.611206,171.516708 430.412567,174.363327 430.911407,177.262009 
	C431.189667,178.878769 430.964935,180.582092 430.967407,183.158829 
M280.637787,167.817017 
	C279.200043,168.782761 277.762299,169.748489 276.609253,170.523010 
	C275.189148,169.416779 274.069275,168.544418 271.970154,166.909271 
	C271.970154,171.355667 271.970123,174.454941 271.970123,177.554199 
	C271.970123,180.645004 271.970154,183.735809 271.970154,186.882278 
	C277.458984,187.049744 276.194733,183.345261 275.994537,180.942276 
	C275.399323,173.796616 276.101227,172.580856 283.722046,171.393707 
	C282.782227,169.868958 281.988647,168.581451 280.637787,167.817017 
M442.602234,185.113693 
	C443.176788,186.321884 443.751343,187.530090 444.325897,188.738281 
	C445.143524,187.945251 445.961151,187.152206 446.778778,186.359161 
	C445.562134,185.775940 444.345520,185.192719 442.602234,185.113693 
z"/>
<path fill="#000000" opacity="1.000000" stroke="none" 
	d="
M356.920746,188.229462 
	C356.920746,188.229462 356.577057,188.067123 356.212952,187.717255 
	C354.805847,186.816544 353.762878,186.265732 352.185852,185.432877 
	C352.185852,187.511002 352.185852,188.784409 352.185852,190.057816 
	C352.082062,191.851471 351.978271,193.645126 351.836578,196.093719 
	C350.372406,195.798431 349.091644,195.540115 347.409973,194.645996 
	C347.009033,185.397232 347.009033,176.784302 347.009033,168.378891 
	C350.428009,168.378891 353.296478,168.418732 356.163239,168.366257 
	C358.444214,168.324493 360.723145,168.169952 363.002960,168.065460 
	C363.002960,168.065460 363.006989,168.000336 363.092133,168.306702 
	C364.172516,169.744781 365.167725,170.876480 366.151703,172.264969 
	C366.422913,172.694855 366.705353,172.867935 366.987793,173.041031 
	C366.987793,173.041031 367.001892,172.988815 367.001526,173.443054 
	C366.639160,177.590820 366.277191,181.284378 365.915192,184.977921 
	C365.915192,184.977921 365.996613,184.992416 365.735748,185.033676 
	C365.297485,185.388397 365.120087,185.701859 364.942688,186.015335 
	C364.942688,186.015335 365.011322,186.008179 364.679932,186.027985 
	C363.549469,186.698212 362.750397,187.348648 361.951324,187.999084 
	C361.951324,187.999069 362.018433,188.007874 361.597382,188.021896 
	C359.757812,188.100433 358.339264,188.164948 356.920746,188.229462 
M362.998444,182.258057 
	C363.009460,179.432190 363.782227,176.279129 362.759216,173.897415 
	C362.095856,172.353073 358.865051,171.431320 356.680450,171.195541 
	C355.306549,171.047287 352.650635,172.489761 352.460846,173.555466 
	C351.852600,176.970215 350.691772,180.770020 354.165863,183.666702 
	C357.268982,186.254044 359.922485,184.768021 362.998444,182.258057 
z"/>
<path fill="#299ECF" opacity="1.000000" stroke="none" 
	d="
M389.904175,170.046249 
	C391.199951,170.678802 392.495758,171.311356 393.676666,171.887817 
	C394.714081,169.584808 395.790649,167.194855 396.462921,165.702438 
	C395.784149,163.332123 395.278320,161.565826 394.772522,159.799530 
	C396.463257,159.373001 399.011658,158.070435 399.661713,158.706848 
	C400.919006,159.937805 401.575989,162.242294 401.653534,164.135742 
	C401.942139,171.186234 402.033783,178.252655 401.922699,185.308762 
	C401.853058,189.732101 400.577637,190.331268 396.676178,188.210464 
	C397.931061,186.993896 399.800110,186.078415 399.852905,185.068024 
	C400.144165,179.493164 399.992188,173.895142 399.992188,168.305069 
	C399.451172,168.055283 398.910126,167.805481 398.369110,167.555695 
	C397.571838,168.714691 396.128815,169.851044 396.087250,171.036545 
	C395.890198,176.657608 396.075470,182.292099 396.124512,187.921814 
	C395.149567,186.855698 394.174622,185.789566 393.282898,184.814438 
	C388.422638,187.608582 384.347504,192.139633 378.431213,188.423859 
	C380.058472,187.720367 381.487793,187.047379 382.883453,187.111099 
	C387.037994,187.300766 389.030579,185.422821 390.896545,181.657089 
	C393.116333,177.177414 390.674438,173.849274 389.904175,170.046249 
z"/>
<path fill="#000000" opacity="1.000000" stroke="none" 
	d="
M247.953857,172.312988 
	C248.024063,170.697357 248.086639,169.542175 248.078262,169.696838 
	C252.050735,168.719589 255.404526,167.768356 258.817230,167.133942 
	C259.806366,166.950043 261.020966,167.547989 262.035278,168.003387 
	C266.955841,170.212524 268.609711,176.595016 266.053497,183.280899 
	C264.759979,186.664154 259.845856,188.408615 255.270233,187.102646 
	C254.052597,186.755142 252.840500,186.388153 251.718826,186.057510 
	C249.601761,189.067673 253.246765,193.705597 247.946228,196.038956 
	C247.946228,187.918533 247.946228,180.345978 247.953857,172.312988 
M258.225464,171.016235 
	C253.287277,169.689743 251.262665,173.171722 251.384888,176.681259 
	C251.480713,179.432449 253.494034,183.197388 255.802353,184.539703 
	C259.334167,186.593521 262.076141,184.256378 263.366943,180.251938 
	C264.681641,176.173401 263.338196,172.871490 258.225464,171.016235 
z"/>
<path fill="#000000" opacity="1.000000" stroke="none" 
	d="
M287.029510,184.870316 
	C284.160828,180.216476 283.818024,175.548721 287.313110,170.431763 
	C288.139679,169.674881 288.605347,169.348022 289.071014,169.021149 
	C289.071014,169.021149 289.008881,169.012314 289.400452,168.995850 
	C294.839447,165.172180 299.377533,167.907867 303.959290,170.082352 
	C303.959290,170.082352 303.979614,170.020035 303.977478,170.426697 
	C307.134735,175.064560 306.400482,179.520966 304.738647,184.031021 
	C304.464569,184.019318 304.255371,184.130096 303.799774,184.680878 
	C303.303589,185.329834 303.118652,185.661285 302.933716,185.992737 
	C302.933716,185.992722 302.996613,185.985580 302.578674,186.000656 
	C298.440704,186.653015 294.720673,187.290298 291.000671,187.927582 
	C291.000671,187.927582 291.002228,188.002090 290.932159,187.737854 
	C290.518585,187.383194 290.175079,187.292755 289.831573,187.202301 
	C289.831573,187.202301 289.509430,187.056946 289.226685,186.771149 
	C288.626892,186.294083 288.309875,186.102829 287.992859,185.911591 
	C287.992859,185.911591 287.992920,186.007828 287.971313,185.735062 
	C287.643005,185.264969 287.336243,185.067642 287.029510,184.870316 
M292.817291,170.995529 
	C289.926392,173.161835 289.113495,178.775986 290.688965,182.246506 
	C292.157593,185.481735 294.963654,185.628586 297.221832,184.760452 
	C299.142212,184.022186 301.407776,181.790771 301.789764,179.874847 
	C303.117554,173.215454 300.852478,171.021317 292.817291,170.995529 
z"/>
<path fill="#000000" opacity="1.000000" stroke="none" 
	d="
M312.655701,186.148926 
	C312.655701,186.148926 312.454773,186.024567 312.229889,185.744476 
	C311.675079,185.287903 311.345184,185.111435 311.015259,184.934967 
	C311.015259,184.934952 311.019501,185.002808 311.018585,184.560364 
	C311.036285,179.425125 311.054901,174.732330 311.073517,170.039551 
	C311.073517,170.039551 311.017120,169.996933 311.292786,169.978882 
	C311.734192,169.649338 311.899872,169.337845 312.065552,169.026352 
	C312.065552,169.026352 311.996307,169.016937 312.415100,169.021484 
	C317.550659,166.334305 322.256470,166.840317 326.956360,169.074432 
	C326.956360,169.074432 327.003540,169.023026 327.028137,169.289719 
	C327.360443,169.723648 327.668091,169.890884 327.975769,170.058105 
	C327.975769,170.058105 327.965546,170.005310 327.969788,170.426712 
	C331.864227,175.561447 329.580688,180.257004 327.933350,184.954376 
	C327.933350,184.954376 327.977081,185.004913 327.706360,185.027985 
	C327.267883,185.360703 327.100159,185.670364 326.932434,185.980011 
	C326.932434,185.980026 327.002380,185.981293 326.573120,185.990173 
	C322.424835,186.620773 318.705811,187.242493 314.986786,187.864197 
	C314.964172,187.567810 314.830444,187.335373 314.257751,186.778595 
	C313.505157,186.309875 313.080414,186.229401 312.655701,186.148926 
M325.024628,173.501633 
	C324.211609,169.701172 321.123779,171.495178 318.944916,171.004089 
	C313.329559,169.738464 313.733002,174.414581 313.187134,177.346619 
	C312.512909,180.967758 316.207275,184.988907 319.405792,184.982773 
	C324.886810,184.972260 327.131592,180.788422 325.024628,173.501633 
z"/>
<path fill="#000000" opacity="1.000000" stroke="none" 
	d="
M389.927979,170.024567 
	C390.674438,173.849274 393.116333,177.177414 390.896545,181.657089 
	C389.030579,185.422821 387.037994,187.300766 382.883453,187.111099 
	C381.487793,187.047379 380.058472,187.720367 378.212646,188.124222 
	C377.780731,188.191818 377.531586,188.055328 377.251953,187.724976 
	C375.989227,186.911148 375.006134,186.427658 374.023041,185.944168 
	C374.023041,185.944168 373.996338,185.994202 373.974670,185.715851 
	C373.639282,185.268616 373.325592,185.099716 373.011902,184.930832 
	C373.011902,184.930832 373.011444,184.994095 373.005432,184.563232 
	C373.026733,179.426926 373.054047,174.721512 373.081360,170.016083 
	C373.081360,170.016083 373.006226,170.000992 373.262268,169.957321 
	C373.701874,169.608505 373.885437,169.303360 374.069031,168.998230 
	C374.069031,168.998230 374.003174,169.016495 374.413818,169.045258 
	C379.534790,166.043884 384.246429,167.707291 388.957977,169.070160 
	C388.957977,169.070160 388.998383,169.024399 389.027405,169.290497 
	C389.363861,169.724823 389.671295,169.893066 389.978729,170.061310 
	C389.978729,170.061325 389.951782,170.002899 389.927979,170.024567 
M377.945831,171.018097 
	C377.001740,172.946976 375.688599,174.787506 375.200653,176.825607 
	C374.481140,179.830978 377.831757,184.757492 380.317780,184.973648 
	C384.273224,185.317581 387.866089,182.016357 387.985413,177.928421 
	C388.143402,172.516266 386.202911,171.048050 377.945831,171.018097 
z"/>
<path fill="#000000" opacity="1.000000" stroke="none" 
	d="
M409.064575,177.333649 
	C409.058777,180.529877 409.058777,183.285599 409.058777,186.688126 
	C408.842041,186.758163 407.673065,187.135910 406.214905,187.607132 
	C406.214905,181.038895 406.214905,174.670578 406.214905,169.003738 
	C410.057251,168.646027 413.628662,168.183090 417.214050,168.009598 
	C422.915680,167.733719 423.998871,168.810928 424.042480,174.355515 
	C424.067352,177.518845 423.940186,180.686996 424.074097,183.844818 
	C424.213867,187.141022 422.891052,188.537903 418.962769,187.695160 
	C418.962769,184.082138 419.051819,180.308243 418.929321,176.541214 
	C418.855865,174.281708 420.050476,171.192886 415.915833,171.028717 
	C412.852173,170.907074 409.749237,170.544067 409.530884,174.985596 
	C409.499329,175.627426 409.229797,176.257568 409.064575,177.333649 
z"/>
<path fill="#000000" opacity="1.000000" stroke="none" 
	d="
M336.835266,160.898285 
	C339.144409,160.707550 341.453613,160.516815 343.837860,160.946472 
	C343.577576,162.036713 343.242218,162.506531 342.906860,162.976364 
	C342.906860,162.976364 342.977325,162.977814 342.586609,162.967834 
	C341.146088,163.693573 340.096252,164.429291 339.046448,165.164978 
	C339.878815,166.111099 340.739380,167.034317 341.533325,168.011627 
	C342.043732,168.639847 342.456177,169.347610 342.912506,170.019745 
	C342.912506,170.019745 343.026581,169.966949 342.583008,169.967880 
	C341.090332,171.254120 339.327850,172.441757 339.135773,173.844421 
	C338.689941,177.100113 339.309723,180.501099 338.869843,183.758438 
	C338.668915,185.246353 336.984924,186.533997 335.973602,187.912476 
	C335.973602,187.912476 335.983856,188.003220 335.990875,187.531281 
	C335.992310,182.958572 336.209991,178.839767 335.880707,174.765137 
	C335.731079,172.913879 334.498291,171.150192 333.842316,169.554703 
	C334.798615,166.788864 335.816925,163.843582 336.835266,160.898285 
z"/>
<path fill="#000000" opacity="1.000000" stroke="none" 
	d="
M430.967163,182.702606 
	C430.964935,180.582092 431.189667,178.878769 430.911407,177.262009 
	C430.412567,174.363327 429.611206,171.516708 428.753113,167.869812 
	C429.739532,166.457504 431.495941,163.942734 433.252380,161.427979 
	C433.674500,161.657822 434.096649,161.887665 434.518768,162.117523 
	C433.523834,165.518402 433.369629,168.486328 438.886871,168.726440 
	C431.375427,170.688126 434.348389,175.919891 434.167297,179.638870 
	C434.062103,181.799500 435.769073,184.048370 436.754974,186.491364 
	C432.637299,189.170410 431.425018,188.709915 430.967163,182.702606 
z"/>
<path fill="#2B9FCE" opacity="1.000000" stroke="none" 
	d="
M336.506165,161.013046 
	C335.816925,163.843582 334.798615,166.788864 333.842316,169.554703 
	C334.498291,171.150192 335.731079,172.913879 335.880707,174.765137 
	C336.209991,178.839767 335.992310,182.958572 336.036316,187.526657 
	C335.392151,186.288773 334.300995,184.626312 334.117249,182.868973 
	C333.794464,179.781845 334.027069,176.636642 334.027069,172.423172 
	C331.909119,177.333969 330.285797,181.097946 328.297913,184.908142 
	C329.580688,180.257004 331.864227,175.561447 327.958008,170.455475 
	C330.687042,167.084488 333.432037,164.106140 336.506165,161.013046 
z"/>
<path fill="#000000" opacity="1.000000" stroke="none" 
	d="
M280.916443,167.555481 
	C281.988647,168.581451 282.782227,169.868958 283.722046,171.393707 
	C276.101227,172.580856 275.399323,173.796616 275.994537,180.942276 
	C276.194733,183.345261 277.458984,187.049744 271.970154,186.882278 
	C271.970154,183.735809 271.970123,180.645004 271.970123,177.554199 
	C271.970123,174.454941 271.970154,171.355667 271.970154,166.909271 
	C274.069275,168.544418 275.189148,169.416779 276.609253,170.523010 
	C277.762299,169.748489 279.200043,168.782761 280.916443,167.555481 
z"/>
<path fill="#3BAAD6" opacity="1.000000" stroke="none" 
	d="
M362.911926,167.722504 
	C360.723145,168.169952 358.444214,168.324493 356.163239,168.366257 
	C353.296478,168.418732 350.428009,168.378891 347.009033,168.378891 
	C347.009033,176.784302 347.009033,185.397232 347.058136,194.470428 
	C346.722809,190.549423 346.246674,186.173569 345.987091,181.784927 
	C345.821442,178.985001 345.971802,176.166092 345.988495,173.355743 
	C346.028809,166.575012 346.030914,166.656647 352.941162,166.639359 
	C354.521637,166.635391 356.137848,165.417542 357.669739,165.549026 
	C359.426239,165.699783 361.107147,166.730881 362.911926,167.722504 
z"/>
<path fill="#299ECF" opacity="1.000000" stroke="none" 
	d="
M372.771515,170.095428 
	C373.054047,174.721512 373.026733,179.426926 373.035583,184.553635 
	C371.909454,184.147095 370.747162,183.319275 369.387207,182.350708 
	C368.459747,183.133057 367.496796,183.945358 366.224487,184.867798 
	C366.277191,181.284378 366.639160,177.590820 366.975220,173.449249 
	C370.452179,175.307251 370.393799,170.667664 372.771515,170.095428 
z"/>
<path fill="#2B9FCE" opacity="1.000000" stroke="none" 
	d="
M310.773560,170.110718 
	C311.054901,174.732330 311.036285,179.425125 311.045349,184.539276 
	C309.193787,184.622421 307.314545,184.284164 305.086975,183.988464 
	C306.400482,179.520966 307.134735,175.064560 303.946411,170.437134 
	C306.095917,170.411011 308.208038,173.866180 310.773560,170.110718 
z"/>
<path fill="#2B9FCE" opacity="1.000000" stroke="none" 
	d="
M336.232300,188.134033 
	C336.984924,186.533997 338.668915,185.246353 338.869843,183.758438 
	C339.309723,180.501099 338.689941,177.100113 339.135773,173.844421 
	C339.327850,172.441757 341.090332,171.254120 342.557068,169.910629 
	C342.321503,174.297318 341.645996,178.739059 341.023254,183.188187 
	C340.639801,185.927979 340.873810,189.149063 336.232300,188.134033 
z"/>
<path fill="#2B9FCE" opacity="1.000000" stroke="none" 
	d="
M326.907379,168.730911 
	C322.256470,166.840317 317.550659,166.334305 312.436798,169.049179 
	C316.255676,163.484863 322.186523,163.210724 326.907379,168.730911 
z"/>
<path fill="#299ECF" opacity="1.000000" stroke="none" 
	d="
M388.894653,168.711517 
	C384.246429,167.707291 379.534790,166.043884 374.425598,169.077301 
	C377.239990,163.849030 384.210632,163.506363 388.894653,168.711517 
z"/>
<path fill="#2B9FCE" opacity="1.000000" stroke="none" 
	d="
M303.902405,169.726105 
	C299.377533,167.907867 294.839447,165.172180 289.408020,169.026306 
	C291.673004,163.543655 299.855103,163.707397 303.902405,169.726105 
z"/>
<path fill="#2B9FCE" opacity="1.000000" stroke="none" 
	d="
M291.155945,188.256439 
	C294.720673,187.290298 298.440704,186.653015 302.565857,185.971710 
	C300.055511,189.689896 295.630890,190.698410 291.155945,188.256439 
z"/>
<path fill="#24B7ED" opacity="1.000000" stroke="none" 
	d="
M442.865540,184.861588 
	C444.345520,185.192719 445.562134,185.775940 446.778778,186.359161 
	C445.961151,187.152206 445.143524,187.945251 444.325897,188.738281 
	C443.751343,187.530090 443.176788,186.321884 442.865540,184.861588 
z"/>
<path fill="#2B9FCE" opacity="1.000000" stroke="none" 
	d="
M315.312042,188.112915 
	C318.705811,187.242493 322.424835,186.620773 326.551971,185.962219 
	C324.177368,191.345871 319.657837,188.694138 315.312042,188.112915 
z"/>
<path fill="#2B9FCE" opacity="1.000000" stroke="none" 
	d="
M343.112518,169.772110 
	C342.456177,169.347610 342.043732,168.639847 341.533325,168.011627 
	C340.739380,167.034317 339.878815,166.111099 339.046448,165.164978 
	C340.096252,164.429291 341.146088,163.693573 342.583282,162.932755 
	C343.084625,165.113266 343.198578,167.318863 343.112518,169.772110 
z"/>
<path fill="#3BAAD6" opacity="1.000000" stroke="none" 
	d="
M352.423157,189.821426 
	C352.185852,188.784409 352.185852,187.511002 352.185852,185.432877 
	C353.762878,186.265732 354.805847,186.816544 356.022949,187.712601 
	C355.018158,188.566895 353.839294,189.075974 352.423157,189.821426 
z"/>
<path fill="#3BAAD6" opacity="1.000000" stroke="none" 
	d="
M366.162933,172.008179 
	C365.167725,170.876480 364.172516,169.744781 363.059692,168.310059 
	C364.313904,169.099167 365.685730,170.191315 366.831421,171.647522 
	C366.605286,172.011581 366.162933,172.008179 366.162933,172.008179 
z"/>
<path fill="#3BAAD6" opacity="1.000000" stroke="none" 
	d="
M362.288391,187.963242 
	C362.750397,187.348648 363.549469,186.698212 364.675049,185.993835 
	C364.209534,186.602386 363.417480,187.264893 362.288391,187.963242 
z"/>
<path fill="#299ECF" opacity="1.000000" stroke="none" 
	d="
M374.138855,186.270508 
	C375.006134,186.427658 375.989227,186.911148 377.110077,187.718185 
	C376.250122,187.560104 375.252380,187.078476 374.138855,186.270508 
z"/>
<path fill="#3BAAD6" opacity="1.000000" stroke="none" 
	d="
M357.234436,188.370544 
	C358.339264,188.164948 359.757812,188.100433 361.599426,187.988129 
	C360.531067,188.130753 359.039612,188.321182 357.234436,188.370544 
z"/>
<path fill="#2B9FCE" opacity="1.000000" stroke="none" 
	d="
M343.146118,162.915695 
	C343.242218,162.506531 343.577576,162.036713 344.040100,161.303741 
	C343.906616,161.645401 343.645996,162.250214 343.146118,162.915695 
z"/>
<path fill="#2B9FCE" opacity="1.000000" stroke="none" 
	d="
M288.779022,169.066940 
	C288.605347,169.348022 288.139679,169.674881 287.363159,170.044205 
	C287.530548,169.762009 288.008789,169.437363 288.779022,169.066940 
z"/>
<path fill="#299ECF" opacity="1.000000" stroke="none" 
	d="
M366.151703,172.264984 
	C366.162933,172.008179 366.605286,172.011581 366.827698,172.017731 
	C367.042908,172.193542 367.035706,172.363190 367.008118,172.786942 
	C366.705353,172.867935 366.422913,172.694855 366.151703,172.264984 
z"/>
<path fill="#2B9FCE" opacity="1.000000" stroke="none" 
	d="
M287.166626,185.094269 
	C287.336243,185.067642 287.643005,185.264969 288.019470,185.735138 
	C287.827362,185.778046 287.565582,185.548126 287.166626,185.094269 
z"/>
<path fill="#2B9FCE" opacity="1.000000" stroke="none" 
	d="
M303.173828,185.837723 
	C303.118652,185.661285 303.303589,185.329834 303.750793,184.859268 
	C303.813354,185.041016 303.613647,185.361862 303.173828,185.837723 
z"/>
<path fill="#2B9FCE" opacity="1.000000" stroke="none" 
	d="
M311.157166,185.173187 
	C311.345184,185.111435 311.675079,185.287903 312.111938,185.738220 
	C311.912262,185.811844 311.605652,185.611618 311.157166,185.173187 
z"/>
<path fill="#2B9FCE" opacity="1.000000" stroke="none" 
	d="
M327.157288,185.863281 
	C327.100159,185.670364 327.267883,185.360703 327.705505,184.995575 
	C327.777618,185.208908 327.579865,185.477737 327.157288,185.863281 
z"/>
<path fill="#3BAAD6" opacity="1.000000" stroke="none" 
	d="
M365.167236,185.880615 
	C365.120087,185.701859 365.297485,185.388397 365.742920,184.992950 
	C365.804565,185.189270 365.598175,185.467590 365.167236,185.880615 
z"/>
<path fill="#299ECF" opacity="1.000000" stroke="none" 
	d="
M373.127655,185.158264 
	C373.325592,185.099716 373.639282,185.268616 374.002777,185.712189 
	C373.782867,185.786469 373.513123,185.586090 373.127655,185.158264 
z"/>
<path fill="#2B9FCE" opacity="1.000000" stroke="none" 
	d="
M288.149292,186.132767 
	C288.309875,186.102829 288.626892,186.294083 289.051025,186.751587 
	C288.873993,186.796524 288.589844,186.575241 288.149292,186.132767 
z"/>
<path fill="#2B9FCE" opacity="1.000000" stroke="none" 
	d="
M312.872986,186.359314 
	C313.080414,186.229401 313.505157,186.309875 314.062988,186.709473 
	C313.827484,186.875626 313.458893,186.722672 312.872986,186.359314 
z"/>
<path fill="#299ECF" opacity="1.000000" stroke="none" 
	d="
M389.862061,169.836624 
	C389.671295,169.893066 389.363861,169.724823 388.996887,169.289154 
	C389.206757,169.218460 389.476074,169.415192 389.862061,169.836624 
z"/>
<path fill="#299ECF" opacity="1.000000" stroke="none" 
	d="
M373.862915,169.149963 
	C373.885437,169.303360 373.701874,169.608505 373.254822,169.994888 
	C373.213135,169.817978 373.434998,169.559830 373.862915,169.149963 
z"/>
<path fill="#2B9FCE" opacity="1.000000" stroke="none" 
	d="
M327.860596,169.832596 
	C327.668091,169.890884 327.360443,169.723648 326.993439,169.288803 
	C327.204529,169.216492 327.474976,169.411789 327.860596,169.832596 
z"/>
<path fill="#2B9FCE" opacity="1.000000" stroke="none" 
	d="
M311.833405,169.133530 
	C311.899872,169.337845 311.734192,169.649338 311.296753,170.013840 
	C311.217072,169.791458 311.409149,169.516083 311.833405,169.133530 
z"/>
<path fill="#2B9FCE" opacity="1.000000" stroke="none" 
	d="
M290.018860,187.366409 
	C290.175079,187.292755 290.518585,187.383194 290.969421,187.737000 
	C290.760925,187.891251 290.470703,187.734634 290.018860,187.366409 
z"/>
<path fill="#179DD4" opacity="1.000000" stroke="none" 
	d="
M362.800842,182.613281 
	C359.922485,184.768021 357.268982,186.254044 354.165863,183.666702 
	C350.691772,180.770020 351.852600,176.970215 352.460846,173.555466 
	C352.650635,172.489761 355.306549,171.047287 356.680450,171.195541 
	C358.865051,171.431320 362.095856,172.353073 362.759216,173.897415 
	C363.782227,176.279129 363.009460,179.432190 362.800842,182.613281 
z"/>
<path fill="#000000" opacity="1.000000" stroke="none" 
	d="
M396.087219,187.935608 
	C396.075470,182.292099 395.890198,176.657608 396.087250,171.036545 
	C396.128815,169.851044 397.571838,168.714691 398.369110,167.555695 
	C398.910126,167.805481 399.451172,168.055283 399.992188,168.305069 
	C399.992188,173.895142 400.144165,179.493164 399.852905,185.068024 
	C399.800110,186.078415 397.931061,186.993896 396.489014,187.913971 
	C396.077576,187.874756 396.049927,187.949402 396.087219,187.935608 
z"/>
<path fill="#1BA0D6" opacity="1.000000" stroke="none" 
	d="
M258.647583,171.025650 
	C263.338196,172.871490 264.681641,176.173401 263.366943,180.251938 
	C262.076141,184.256378 259.334167,186.593521 255.802353,184.539703 
	C253.494034,183.197388 251.480713,179.432449 251.384888,176.681259 
	C251.262665,173.171722 253.287277,169.689743 258.647583,171.025650 
z"/>
<path fill="#179DD4" opacity="1.000000" stroke="none" 
	d="
M293.262024,170.990891 
	C300.852478,171.021317 303.117554,173.215454 301.789764,179.874847 
	C301.407776,181.790771 299.142212,184.022186 297.221832,184.760452 
	C294.963654,185.628586 292.157593,185.481735 290.688965,182.246506 
	C289.113495,178.775986 289.926392,173.161835 293.262024,170.990891 
z"/>
<path fill="#1BA0D6" opacity="1.000000" stroke="none" 
	d="
M325.068604,173.924026 
	C327.131592,180.788422 324.886810,184.972260 319.405792,184.982773 
	C316.207275,184.988907 312.512909,180.967758 313.187134,177.346619 
	C313.733002,174.414581 313.329559,169.738464 318.944916,171.004089 
	C321.123779,171.495178 324.211609,169.701172 325.068604,173.924026 
z"/>
<path fill="#179DD4" opacity="1.000000" stroke="none" 
	d="
M378.376526,171.001022 
	C386.202911,171.048050 388.143402,172.516266 387.985413,177.928421 
	C387.866089,182.016357 384.273224,185.317581 380.317780,184.973648 
	C377.831757,184.757492 374.481140,179.830978 375.200653,176.825607 
	C375.688599,174.787506 377.001740,172.946976 378.376526,171.001022 
z"/>
</svg>