<?xml version="1.0" encoding="UTF-8" standalone="no"?>
<svg
   width="300.26938"
   height="56.9319"
   viewBox="0 0 300.26938 56.9319"
   fill="none"
   version="1.1"
   id="svg28"
   sodipodi:docname="sentinel1_banner - Copy.svg"
   xmlns:inkscape="http://www.inkscape.org/namespaces/inkscape"
   xmlns:sodipodi="http://sodipodi.sourceforge.net/DTD/sodipodi-0.dtd"
   xmlns="http://www.w3.org/2000/svg"
   xmlns:svg="http://www.w3.org/2000/svg">
  <sodipodi:namedview
     id="namedview28"
     pagecolor="#ffffff"
     bordercolor="#000000"
     borderopacity="0.25"
     inkscape:showpageshadow="2"
     inkscape:pageopacity="0.0"
     inkscape:pagecheckerboard="0"
     inkscape:deskcolor="#d1d1d1"
     showguides="true">
    <sodipodi:guide
       position="-0.30126998,-39.855313"
       orientation="1,0"
       id="guide28"
       inkscape:locked="false" />
    <sodipodi:guide
       position="299.9248,-40.940467"
       orientation="1,0"
       id="guide29"
       inkscape:locked="false" />
  </sodipodi:namedview>
  <g
     clip-path="url(#clip0_530_17508)"
     id="g19"
     transform="matrix(1.2537305,0,0,1.2537305,-0.37771138,0)">
    <path
       d="m 63.325,20.7693 c -3.914,-0.745 -5.8055,-1.1499 -5.8055,-3.0788 0,-1.8269 1.5887,-2.742 3.7456,-2.742 2.4665,0 3.9838,1.3897 4.1896,3.385 h 4.9992 c -0.102,-4.5349 -3.6129,-7.4453 -9.182,-7.4453 -5.5691,0 -8.8146,2.9801 -8.8146,7.1782 0,4.8054 3.4786,6.0607 7.4946,6.8381 3.9498,0.779 5.877,1.1822 5.877,3.1792 0,1.8609 -1.7231,2.8746 -4.0501,2.8746 -2.9019,0 -4.7254,-1.5921 -4.8938,-3.8919 l -4.9958,-0.0663 c 0.0663,4.8054 3.8153,7.9879 9.8267,7.9879 5.5367,0 9.182,-3.0431 9.2177,-7.4793 0,-4.7713 -3.5806,-5.9926 -7.5967,-6.7343 l -0.0136,-0.0085 v 0.0051 z"
       fill="#000000"
       id="path1" />
    <path
       d="m 101.754,17.1767 c -2.6975,0 -4.4632,2.0021 -5.2542,4.3818 h -1.2519 l 1.1057,-2.4868 c 0.2347,-0.5291 0.3572,-1.1006 0.3572,-1.6789 h -5.4466 v 17.3876 h 4.7747 v -8.903 c 0,-3.0125 1.422,-4.7747 3.8919,-4.7747 2.4702,0 3.5192,1.5581 3.5192,4.5008 v 9.1735 h 4.775 v -9.7501 c 0,-5.9229 -2.878,-7.8536 -6.466,-7.8536 h -0.001 z"
       fill="#000000"
       id="path2" />
    <path
       d="m 140.544,17.1767 c -2.698,0 -4.463,2.0021 -5.254,4.3818 h -1.252 l 1.105,-2.4868 c 0.235,-0.5291 0.358,-1.1006 0.358,-1.6789 h -5.449 v 17.3876 h 4.775 v -8.903 c 0,-3.0125 1.422,-4.7747 3.892,-4.7747 2.47,0 3.519,1.5581 3.519,4.5008 v 9.1735 h 4.775 v -9.7501 c 0,-5.9229 -2.878,-7.8536 -6.467,-7.8536 h -0.002 z"
       fill="#000000"
       id="path3" />
    <path
       d="m 127.606,17.3911 h -4.79 v 17.3877 h 4.792 V 17.3911 Z"
       fill="#000000"
       id="path4" />
    <path
       d="m 172.565,10.4221 -4.761,2.4018 v 21.9566 h 4.761 z"
       fill="#000000"
       id="path5" />
    <path
       d="m 127.608,11.2878 h -4.792 v 4.7918 h 4.792 z"
       fill="#000000"
       id="path6" />
    <path
       d="M 116.616,17.391 V 11.23 l -4.763,2.4018 v 3.7592 h -2.868 v 4.0212 h 2.868 v 10.815 c 0,1.4084 1.143,2.5515 2.552,2.5515 h 6.195 v -4.0246 h -3.984 V 21.4122 H 120.6 V 17.391 Z"
       fill="#000000"
       id="path7" />
    <path
       d="m 148.5,26.1121 c 0,-5.416 3.553,-8.9353 8.935,-8.9353 5.382,0 8.733,3.2489 8.767,8.3604 0,0.5069 -0.034,1.0835 -0.136,1.6245 h -12.591 v 0.2364 c 0.102,2.4716 1.692,3.9599 4.096,3.9599 1.895,0 3.249,-0.8454 3.689,-2.4715 h 4.705 c -0.54,3.385 -3.553,6.093 -8.224,6.093 -5.788,0 -9.241,-3.4871 -9.241,-8.8691 z m 12.897,-2.065 c -0.305,-2.133 -1.795,-3.3169 -3.926,-3.3169 -2.132,0 -3.622,1.2519 -3.892,3.3169 h 7.819 z"
       fill="#000000"
       id="path8" />
    <path
       d="m 211.911,17.1767 c -2.698,0 -4.463,2.0021 -5.254,4.3818 h -1.252 l 1.106,-2.4868 c 0.234,-0.5291 0.357,-1.1006 0.357,-1.6789 h -5.449 v 17.3876 h 4.775 v -8.903 c 0,-3.0125 1.422,-4.7747 3.892,-4.7747 2.47,0 3.519,1.5581 3.519,4.5008 v 9.1735 h 4.775 v -9.7501 c 0,-5.9229 -2.878,-7.8536 -6.467,-7.8536 h -0.002 z"
       fill="#000000"
       id="path9" />
    <path
       d="m 219.867,26.1121 c 0,-5.416 3.553,-8.9353 8.935,-8.9353 5.382,0 8.733,3.2489 8.767,8.3604 0,0.5069 -0.034,1.0835 -0.136,1.6245 h -12.591 v 0.2364 c 0.102,2.4716 1.693,3.9599 4.096,3.9599 1.895,0 3.249,-0.8454 3.69,-2.4715 h 4.705 c -0.541,3.385 -3.554,6.093 -8.225,6.093 -5.788,0 -9.241,-3.4871 -9.241,-8.8691 z m 12.897,-2.065 c -0.305,-2.133 -1.795,-3.3169 -3.926,-3.3169 -2.132,0 -3.622,1.2519 -3.892,3.3169 h 7.819 z"
       fill="#000000"
       id="path10" />
    <path
       d="m 72.1245,26.1121 c 0,-5.416 3.5534,-8.9353 8.9354,-8.9353 5.382,0 8.733,3.2489 8.767,8.3604 0,0.5069 -0.034,1.0835 -0.1361,1.6245 H 77.1 v 0.2364 c 0.102,2.4716 1.6925,3.9599 4.096,3.9599 1.8949,0 3.2489,-0.8454 3.6895,-2.4715 h 4.7049 c -0.5409,3.385 -3.5534,6.093 -8.2243,6.093 -5.7885,0 -9.2416,-3.4871 -9.2416,-8.8691 z m 12.897,-2.065 c -0.3044,-2.133 -1.7945,-3.3169 -3.9259,-3.3169 -2.1313,0 -3.6214,1.2519 -3.8919,3.3169 h 7.8195 z"
       fill="#000000"
       id="path11" />
    <path
       d="m 187.73,34.983 c -6.969,0 -12.016,-5.1422 -12.016,-12.0449 0,-6.9026 5.047,-12.0448 12.016,-12.0448 6.969,0 12.091,5.1422 12.091,12.0448 0,6.9027 -5.122,12.0449 -12.091,12.0449 z m 0,-4.2968 c 3.958,0 6.88,-3.2812 6.88,-7.7481 0,-4.4668 -2.922,-7.748 -6.88,-7.748 -3.958,0 -6.84,3.2812 -6.84,7.748 0,4.4669 2.848,7.7481 6.84,7.7481 z"
       fill="#000000"
       id="path12" />
    <path
       d="m 237.71,16.2361 h 0.625 c 0.337,0 0.563,0.199 0.563,0.5103 0,0.1973 -0.102,0.3538 -0.262,0.4303 l 0.303,0.5903 h -0.364 l -0.259,-0.5137 h -0.276 v 0.5137 h -0.328 v -1.5326 z m 0.329,0.2721 v 0.4712 h 0.269 c 0.154,0 0.253,-0.0918 0.253,-0.2347 0,-0.1429 -0.099,-0.2365 -0.253,-0.2365 z"
       fill="#000000"
       id="path13" />
    <path
       d="m 238.265,18.5698 c -0.849,0 -1.538,-0.6906 -1.538,-1.5377 0,-0.8471 0.691,-1.5377 1.538,-1.5377 0.847,0 1.537,0.6906 1.537,1.5377 0,0.8471 -0.69,1.5377 -1.537,1.5377 z m 0,-2.7471 c -0.667,0 -1.21,0.5426 -1.21,1.2094 0,0.6668 0.543,1.2094 1.21,1.2094 0.667,0 1.209,-0.5426 1.209,-1.2094 0,-0.6668 -0.542,-1.2094 -1.209,-1.2094 z"
       fill="#000000"
       id="path14" />
    <path
       d="m 18.4663,9.10208 18.165,9.08172 V 9.08337 L 18.4663,0 Z"
       fill="url(#paint0_linear_530_17508)"
       id="path15"
       style="fill:url(#paint0_linear_530_17508)" />
    <path
       d="m 18.4663,36.308 18.165,-9.0834 v 9.1021 l -18.165,9.0834 z"
       fill="url(#paint1_linear_530_17508)"
       id="path16"
       style="fill:url(#paint1_linear_530_17508)" />
    <path
       d="M 18.4663,9.10208 0.30127,18.1838 V 9.08337 L 18.4663,0 Z"
       fill="url(#paint2_linear_530_17508)"
       id="path17"
       style="fill:url(#paint2_linear_530_17508)" />
    <path
       d="M 18.4663,36.308 0.30127,27.2246 v 9.1021 l 18.16503,9.0834 z"
       fill="url(#paint3_linear_530_17508)"
       id="path18"
       style="fill:url(#paint3_linear_530_17508)" />
    <path
       d="m 4.83936,20.4411 18.15144,9.0765 9.097,-4.5518 -18.143,-9.0715 z"
       fill="url(#paint4_linear_530_17508)"
       id="path19"
       style="fill:url(#paint4_linear_530_17508)" />
  </g>
  <defs
     id="defs28">
    <linearGradient
       id="paint0_linear_530_17508"
       x1="36.503799"
       y1="13.5757"
       x2="18.4578"
       y2="4.5416799"
       gradientUnits="userSpaceOnUse">
      <stop
         stop-color="#4500B6"
         id="stop19" />
      <stop
         offset="1"
         stop-color="#6100FF"
         id="stop20" />
    </linearGradient>
    <linearGradient
       id="paint1_linear_530_17508"
       x1="36.503799"
       y1="31.834299"
       x2="18.4578"
       y2="40.868401"
       gradientUnits="userSpaceOnUse">
      <stop
         stop-color="#4500B6"
         id="stop21" />
      <stop
         offset="1"
         stop-color="#6100FF"
         id="stop22" />
    </linearGradient>
    <linearGradient
       id="paint2_linear_530_17508"
       x1="0.42884499"
       y1="13.5757"
       x2="18.4748"
       y2="4.5416799"
       gradientUnits="userSpaceOnUse">
      <stop
         stop-color="#6100FF"
         id="stop23" />
      <stop
         offset="1"
         stop-color="#4500B6"
         id="stop24" />
    </linearGradient>
    <linearGradient
       id="paint3_linear_530_17508"
       x1="0.42884499"
       y1="31.834299"
       x2="18.4748"
       y2="40.868401"
       gradientUnits="userSpaceOnUse">
      <stop
         stop-color="#6100FF"
         id="stop25" />
      <stop
         offset="1"
         stop-color="#4500B6"
         id="stop26" />
    </linearGradient>
    <linearGradient
       id="paint4_linear_530_17508"
       x1="28.155001"
       y1="27.554701"
       x2="8.6258001"
       y2="17.7773"
       gradientUnits="userSpaceOnUse">
      <stop
         stop-color="#6100FF"
         id="stop27" />
      <stop
         offset="1"
         stop-color="#4500B6"
         id="stop28" />
    </linearGradient>
    <clipPath
       id="clip0_530_17508">
      <rect
         width="240"
         height="45.41"
         fill="#ffffff"
         id="rect28"
         x="0"
         y="0" />
    </clipPath>
  </defs>
</svg>
