<?xml version="1.0" encoding="UTF-8"?>
<svg xmlns="http://www.w3.org/2000/svg" xmlns:xlink="http://www.w3.org/1999/xlink" width="91px" height="27px" viewBox="0 0 91 27" version="1.1">
<g id="surface1">
<path style=" stroke:none;fill-rule:nonzero;fill:rgb(4.705882%,9.019608%,14.117648%);fill-opacity:1;" d="M 9.644531 16.351562 C 9.644531 16.953125 9.519531 17.511719 9.265625 18.027344 C 9.011719 18.535156 8.652344 18.976562 8.203125 19.328125 C 7.746094 19.691406 7.207031 19.964844 6.578125 20.164062 C 5.953125 20.363281 5.265625 20.460938 4.519531 20.460938 C 3.628906 20.460938 2.828125 20.339844 2.125 20.09375 C 1.421875 19.851562 0.710938 19.441406 0 18.875 L 1.175781 16.957031 C 1.738281 17.433594 2.242188 17.777344 2.699219 18 C 3.148438 18.21875 3.613281 18.324219 4.09375 18.324219 C 4.675781 18.324219 5.140625 18.175781 5.5 17.871094 C 5.855469 17.566406 6.023438 17.164062 6.023438 16.648438 C 6.023438 16.425781 5.988281 16.222656 5.925781 16.03125 C 5.863281 15.839844 5.746094 15.640625 5.574219 15.4375 C 5.40625 15.238281 5.167969 15.011719 4.867188 14.777344 C 4.570312 14.546875 4.183594 14.25 3.707031 13.902344 C 3.347656 13.648438 2.988281 13.378906 2.644531 13.109375 C 2.300781 12.832031 1.992188 12.542969 1.703125 12.230469 C 1.421875 11.921875 1.195312 11.574219 1.019531 11.183594 C 0.851562 10.800781 0.761719 10.355469 0.761719 9.867188 C 0.761719 9.300781 0.878906 8.777344 1.113281 8.3125 C 1.34375 7.84375 1.667969 7.449219 2.074219 7.117188 C 2.484375 6.78125 2.96875 6.527344 3.542969 6.34375 C 4.113281 6.160156 4.730469 6.070312 5.40625 6.070312 C 6.117188 6.070312 6.796875 6.160156 7.457031 6.351562 C 8.117188 6.542969 8.730469 6.820312 9.300781 7.1875 L 8.238281 8.914062 C 7.515625 8.402344 6.746094 8.140625 5.945312 8.140625 C 5.460938 8.140625 5.054688 8.269531 4.738281 8.523438 C 4.421875 8.777344 4.261719 9.097656 4.261719 9.484375 C 4.261719 9.855469 4.398438 10.1875 4.679688 10.476562 C 4.960938 10.773438 5.449219 11.175781 6.136719 11.714844 C 6.832031 12.226562 7.410156 12.675781 7.859375 13.058594 C 8.316406 13.441406 8.675781 13.808594 8.941406 14.148438 C 9.207031 14.488281 9.382812 14.828125 9.488281 15.183594 C 9.59375 15.542969 9.644531 15.925781 9.644531 16.347656 Z M 21.699219 13.117188 C 21.699219 13.648438 21.640625 14.222656 21.53125 14.835938 C 21.425781 15.453125 21.234375 16.019531 20.96875 16.542969 C 20.699219 17.066406 20.355469 17.496094 19.925781 17.828125 C 19.5 18.167969 18.949219 18.339844 18.296875 18.339844 C 17.199219 18.339844 16.335938 17.898438 15.703125 17.015625 C 15.070312 16.136719 14.753906 14.929688 14.753906 13.394531 C 14.753906 11.816406 15.070312 10.570312 15.71875 9.644531 C 16.355469 8.714844 17.226562 8.257812 18.324219 8.257812 C 19.363281 8.257812 20.1875 8.695312 20.792969 9.558594 C 21.394531 10.429688 21.699219 11.617188 21.699219 13.117188 Z M 25.507812 12.980469 C 25.507812 11.957031 25.359375 11.023438 25.070312 10.1875 C 24.777344 9.34375 24.367188 8.625 23.828125 8.015625 C 23.285156 7.40625 22.652344 6.941406 21.914062 6.601562 C 21.179688 6.261719 20.363281 6.089844 19.46875 6.089844 C 18.484375 6.089844 17.621094 6.28125 16.875 6.648438 C 16.132812 7.023438 15.433594 7.613281 14.804688 8.417969 L 14.78125 6.417969 L 11.273438 6.417969 L 11.273438 26.996094 L 14.773438 26.996094 L 14.773438 18.304688 C 15.121094 18.707031 15.449219 19.046875 15.773438 19.320312 C 16.089844 19.597656 16.414062 19.824219 16.742188 19.996094 C 17.074219 20.164062 17.417969 20.292969 17.78125 20.363281 C 18.148438 20.433594 18.542969 20.46875 18.957031 20.46875 C 19.882812 20.46875 20.757812 20.277344 21.558594 19.910156 C 22.359375 19.535156 23.054688 19.011719 23.636719 18.332031 C 24.21875 17.652344 24.679688 16.859375 25.007812 15.960938 C 25.34375 15.054688 25.507812 14.058594 25.507812 12.980469 Z M 27.066406 20.136719 L 30.667969 20.136719 L 30.667969 0 L 27.066406 0 Z M 46.015625 20.144531 L 46.015625 6.402344 L 42.414062 6.402344 L 42.414062 13.796875 C 42.414062 14.453125 42.386719 14.964844 42.332031 15.324219 C 42.273438 15.6875 42.183594 16.003906 42.058594 16.300781 C 41.550781 17.433594 40.617188 18.007812 39.261719 18.007812 C 38.199219 18.007812 37.460938 17.625 37.039062 16.851562 C 36.871094 16.5625 36.757812 16.230469 36.695312 15.863281 C 36.632812 15.496094 36.597656 14.964844 36.597656 14.261719 L 36.597656 6.402344 L 32.996094 6.402344 L 32.996094 14.210938 C 32.996094 14.742188 33.003906 15.195312 33.011719 15.554688 C 33.019531 15.914062 33.046875 16.25 33.082031 16.53125 C 33.117188 16.816406 33.160156 17.070312 33.207031 17.289062 C 33.25 17.507812 33.320312 17.71875 33.414062 17.917969 C 33.742188 18.761719 34.269531 19.398438 35.007812 19.828125 C 35.746094 20.261719 36.652344 20.472656 37.722656 20.472656 C 38.683594 20.472656 39.535156 20.304688 40.265625 19.964844 C 40.996094 19.625 41.707031 19.070312 42.394531 18.300781 L 42.402344 20.140625 L 46.015625 20.148438 Z M 61.519531 20.136719 L 61.519531 12.34375 C 61.519531 11.8125 61.515625 11.359375 61.507812 10.984375 C 61.5 10.609375 61.480469 10.285156 61.4375 10.007812 C 61.402344 9.734375 61.351562 9.492188 61.304688 9.285156 C 61.246094 9.074219 61.183594 8.871094 61.113281 8.671875 C 60.785156 7.851562 60.253906 7.214844 59.519531 6.769531 C 58.78125 6.320312 57.875 6.09375 56.796875 6.09375 C 55.835938 6.09375 54.984375 6.265625 54.253906 6.605469 C 53.523438 6.945312 52.8125 7.503906 52.125 8.269531 L 52.117188 6.429688 L 48.496094 6.429688 L 48.496094 20.136719 L 52.125 20.136719 L 52.125 12.738281 C 52.125 12.101562 52.144531 11.597656 52.195312 11.242188 C 52.234375 10.890625 52.328125 10.558594 52.453125 10.238281 C 52.6875 9.6875 53.050781 9.277344 53.535156 8.992188 C 54.019531 8.710938 54.597656 8.570312 55.273438 8.570312 C 56.332031 8.570312 57.070312 8.953125 57.492188 9.722656 C 57.65625 10.011719 57.765625 10.34375 57.832031 10.707031 C 57.894531 11.066406 57.929688 11.605469 57.929688 12.296875 L 57.929688 20.121094 L 61.519531 20.128906 Z M 76.410156 19.230469 L 70.929688 12.375 L 75.558594 7.378906 L 72.832031 6.195312 L 68.011719 11.820312 L 67.632812 11.820312 L 67.632812 0.00390625 L 64.003906 0.00390625 L 64.003906 20.140625 L 67.632812 20.140625 L 67.632812 12.84375 L 73.058594 20.414062 Z M 90.425781 14.304688 L 90.425781 12.0625 L 79.519531 6.558594 L 79.519531 9.027344 L 87.972656 13.164062 L 79.519531 17.359375 L 79.519531 19.773438 Z M 80.578125 2.996094 C 79.910156 2.996094 79.371094 3.546875 79.371094 4.226562 C 79.371094 4.921875 79.910156 5.464844 80.578125 5.464844 C 81.253906 5.464844 81.789062 4.921875 81.789062 4.226562 C 81.789062 3.539062 81.253906 2.996094 80.578125 2.996094 Z M 80.585938 3.1875 C 81.128906 3.1875 81.5625 3.652344 81.5625 4.234375 C 81.5625 4.8125 81.128906 5.28125 80.585938 5.273438 C 80.039062 5.273438 79.601562 4.8125 79.601562 4.226562 C 79.601562 3.652344 80.039062 3.1875 80.585938 3.1875 Z M 80.355469 4.355469 L 80.5 4.355469 C 80.675781 4.355469 80.761719 4.417969 80.796875 4.59375 C 80.824219 4.777344 80.859375 4.898438 80.886719 4.941406 L 81.121094 4.941406 C 81.097656 4.898438 81.0625 4.8125 81.035156 4.601562 C 81.007812 4.398438 80.929688 4.289062 80.804688 4.269531 L 80.804688 4.253906 C 80.953125 4.210938 81.070312 4.097656 81.070312 3.921875 C 81.070312 3.796875 81.027344 3.695312 80.945312 3.640625 C 80.859375 3.574219 80.726562 3.535156 80.523438 3.535156 C 80.359375 3.535156 80.25 3.546875 80.136719 3.570312 L 80.136719 4.941406 L 80.355469 4.941406 Z M 80.355469 3.71875 C 80.390625 3.710938 80.4375 3.703125 80.507812 3.703125 C 80.753906 3.703125 80.839844 3.824219 80.839844 3.945312 C 80.839844 4.113281 80.683594 4.175781 80.507812 4.175781 L 80.355469 4.175781 Z M 80.355469 3.71875 "/>
</g>
</svg>
