<?xml version="1.0" encoding="UTF-8"?>
<svg xmlns="http://www.w3.org/2000/svg" xmlns:xlink="http://www.w3.org/1999/xlink" width="300px" height="89px" viewBox="0 0 301 89" version="1.1">
<g id="surface1">
<path style=" stroke:none;fill-rule:nonzero;fill:rgb(4.705882%,9.019608%,14.117648%);fill-opacity:1;" d="M 31.902344 53.894531 C 31.902344 55.875 31.484375 57.71875 30.644531 59.421875 C 29.808594 61.101562 28.625 62.546875 27.136719 63.714844 C 25.625 64.902344 23.832031 65.8125 21.765625 66.464844 C 19.695312 67.117188 17.417969 67.445312 14.953125 67.445312 C 12 67.445312 9.347656 67.046875 7.023438 66.234375 C 4.699219 65.441406 2.351562 64.085938 0.00390625 62.21875 L 3.886719 55.898438 C 5.746094 57.460938 7.417969 58.601562 8.933594 59.328125 C 10.417969 60.050781 11.953125 60.402344 13.535156 60.402344 C 15.464844 60.402344 17 59.910156 18.1875 58.90625 C 19.371094 57.90625 19.929688 56.574219 19.929688 54.875 C 19.929688 54.148438 19.8125 53.472656 19.605469 52.84375 C 19.394531 52.214844 19 51.5625 18.441406 50.886719 C 17.882812 50.230469 17.09375 49.484375 16.09375 48.714844 C 15.117188 47.945312 13.839844 46.964844 12.257812 45.824219 C 11.070312 44.984375 9.886719 44.097656 8.746094 43.210938 C 7.609375 42.300781 6.585938 41.34375 5.628906 40.316406 C 4.699219 39.292969 3.957031 38.148438 3.375 36.867188 C 2.816406 35.605469 2.515625 34.136719 2.515625 32.527344 C 2.515625 30.664062 2.910156 28.9375 3.679688 27.394531 C 4.445312 25.855469 5.515625 24.550781 6.863281 23.453125 C 8.210938 22.359375 9.816406 21.519531 11.722656 20.914062 C 13.605469 20.308594 15.648438 20.003906 17.882812 20.003906 C 20.230469 20.003906 22.484375 20.308594 24.667969 20.9375 C 26.855469 21.566406 28.878906 22.476562 30.761719 23.6875 L 27.25 29.378906 C 24.855469 27.699219 22.320312 26.839844 19.671875 26.839844 C 18.066406 26.839844 16.71875 27.257812 15.671875 28.097656 C 14.625 28.9375 14.089844 29.988281 14.089844 31.269531 C 14.089844 32.480469 14.554688 33.578125 15.484375 34.535156 C 16.414062 35.515625 18.019531 36.84375 20.296875 38.617188 C 22.601562 40.296875 24.507812 41.789062 25.996094 43.046875 C 27.507812 44.304688 28.691406 45.519531 29.574219 46.640625 C 30.457031 47.757812 31.039062 48.878906 31.386719 50.042969 C 31.738281 51.234375 31.898438 52.492188 31.898438 53.894531 Z M 71.769531 43.238281 C 71.769531 44.984375 71.585938 46.875 71.214844 48.902344 C 70.863281 50.933594 70.238281 52.800781 69.355469 54.523438 C 68.46875 56.25 67.332031 57.675781 65.910156 58.769531 C 64.492188 59.890625 62.679688 60.449219 60.519531 60.449219 C 56.890625 60.449219 54.03125 59.003906 51.941406 56.085938 C 49.847656 53.195312 48.800781 49.207031 48.800781 44.148438 C 48.800781 38.945312 49.847656 34.839844 51.988281 31.785156 C 54.101562 28.730469 56.984375 27.214844 60.613281 27.214844 C 64.054688 27.214844 66.773438 28.660156 68.769531 31.507812 C 70.769531 34.375 71.769531 38.292969 71.769531 43.238281 Z M 84.371094 42.792969 C 84.371094 39.410156 83.882812 36.332031 82.929688 33.582031 C 81.953125 30.804688 80.605469 28.425781 78.816406 26.421875 C 77.023438 24.417969 74.929688 22.878906 72.492188 21.757812 C 70.050781 20.636719 67.355469 20.078125 64.402344 20.078125 C 61.148438 20.078125 58.289062 20.707031 55.824219 21.921875 C 53.359375 23.15625 51.054688 25.09375 48.964844 27.75 L 48.894531 21.148438 L 37.292969 21.148438 L 37.292969 88.988281 L 48.871094 88.988281 L 48.871094 60.335938 C 50.011719 61.664062 51.105469 62.78125 52.171875 63.691406 C 53.21875 64.601562 54.289062 65.347656 55.378906 65.90625 C 56.472656 66.464844 57.613281 66.886719 58.820312 67.121094 C 60.027344 67.351562 61.332031 67.46875 62.703125 67.46875 C 65.773438 67.46875 68.652344 66.839844 71.304688 65.628906 C 73.953125 64.390625 76.253906 62.664062 78.183594 60.425781 C 80.113281 58.1875 81.625 55.574219 82.71875 52.613281 C 83.835938 49.625 84.371094 46.339844 84.371094 42.792969 Z M 89.53125 66.375 L 101.433594 66.375 L 101.433594 -0.00390625 L 89.53125 -0.00390625 Z M 152.199219 66.398438 L 152.199219 21.105469 L 140.296875 21.105469 L 140.296875 45.476562 C 140.296875 47.644531 140.203125 49.324219 140.019531 50.515625 C 139.832031 51.703125 139.53125 52.753906 139.113281 53.734375 C 137.4375 57.464844 134.34375 59.355469 129.859375 59.355469 C 126.347656 59.355469 123.910156 58.097656 122.511719 55.554688 C 121.957031 54.597656 121.582031 53.5 121.375 52.289062 C 121.164062 51.074219 121.046875 49.324219 121.046875 47.015625 L 121.046875 21.109375 L 109.148438 21.109375 L 109.148438 46.84375 C 109.148438 48.59375 109.167969 50.085938 109.191406 51.273438 C 109.214844 52.464844 109.308594 53.558594 109.425781 54.492188 C 109.542969 55.425781 109.679688 56.265625 109.84375 56.988281 C 109.984375 57.710938 110.214844 58.414062 110.519531 59.066406 C 111.609375 61.84375 113.355469 63.941406 115.796875 65.363281 C 118.238281 66.785156 121.234375 67.484375 124.769531 67.484375 C 127.953125 67.484375 130.765625 66.925781 133.183594 65.804688 C 135.601562 64.6875 137.953125 62.867188 140.226562 60.324219 L 140.25 66.390625 L 152.199219 66.410156 Z M 203.492188 66.375 L 203.492188 40.6875 C 203.492188 38.9375 203.46875 37.445312 203.445312 36.210938 C 203.421875 34.972656 203.355469 33.902344 203.214844 32.992188 C 203.097656 32.082031 202.933594 31.289062 202.773438 30.613281 C 202.585938 29.914062 202.378906 29.234375 202.144531 28.582031 C 201.050781 25.878906 199.308594 23.78125 196.867188 22.308594 C 194.425781 20.835938 191.425781 20.09375 187.871094 20.09375 C 184.683594 20.09375 181.871094 20.652344 179.453125 21.773438 C 177.035156 22.890625 174.6875 24.734375 172.410156 27.253906 L 172.386719 21.1875 L 160.414062 21.1875 L 160.414062 66.378906 L 172.410156 66.378906 L 172.410156 41.984375 C 172.410156 39.886719 172.480469 38.230469 172.640625 37.0625 C 172.78125 35.894531 173.082031 34.800781 173.5 33.75 C 174.269531 31.929688 175.476562 30.578125 177.082031 29.644531 C 178.6875 28.714844 180.59375 28.246094 182.824219 28.246094 C 186.332031 28.246094 188.773438 29.507812 190.171875 32.050781 C 190.707031 33.003906 191.078125 34.101562 191.285156 35.289062 C 191.496094 36.480469 191.613281 38.25 191.613281 40.539062 L 191.613281 66.324219 L 203.492188 66.347656 Z M 252.738281 63.386719 L 234.605469 40.785156 L 249.925781 24.320312 L 240.90625 20.425781 L 224.957031 38.96875 L 223.703125 38.96875 L 223.703125 0.0078125 L 211.707031 0.0078125 L 211.707031 66.386719 L 223.703125 66.386719 L 223.703125 42.339844 L 241.648438 67.285156 L 252.738281 63.390625 Z M 299.097656 47.15625 L 299.097656 39.761719 L 263.027344 21.613281 L 263.027344 29.753906 L 290.980469 43.398438 L 263.027344 57.226562 L 263.027344 65.179688 L 299.097656 47.152344 Z M 266.53125 9.875 C 264.324219 9.875 262.53125 11.691406 262.53125 13.933594 C 262.53125 16.21875 264.324219 18.015625 266.53125 18.015625 C 268.761719 18.015625 270.53125 16.21875 270.53125 13.933594 C 270.53125 11.671875 268.761719 9.875 266.53125 9.875 Z M 266.554688 10.503906 C 268.34375 10.503906 269.785156 12.042969 269.785156 13.953125 C 269.785156 15.867188 268.34375 17.40625 266.554688 17.382812 C 264.742188 17.382812 263.296875 15.867188 263.296875 13.933594 C 263.296875 12.042969 264.742188 10.503906 266.554688 10.503906 Z M 265.789062 14.351562 L 266.273438 14.351562 C 266.855469 14.351562 267.136719 14.5625 267.25 15.144531 C 267.34375 15.75 267.460938 16.148438 267.554688 16.289062 L 268.320312 16.289062 C 268.25 16.148438 268.132812 15.867188 268.042969 15.167969 C 267.949219 14.492188 267.691406 14.144531 267.277344 14.074219 L 267.277344 14.027344 C 267.765625 13.886719 268.160156 13.511719 268.160156 12.929688 C 268.160156 12.511719 268.019531 12.183594 267.738281 11.996094 C 267.460938 11.785156 267.019531 11.648438 266.34375 11.648438 C 265.808594 11.648438 265.4375 11.695312 265.066406 11.761719 L 265.066406 16.289062 L 265.789062 16.289062 Z M 265.789062 12.253906 C 265.902344 12.230469 266.066406 12.207031 266.296875 12.207031 C 267.113281 12.207031 267.390625 12.601562 267.390625 13 C 267.390625 13.558594 266.878906 13.769531 266.296875 13.769531 L 265.789062 13.769531 Z M 265.789062 12.253906 "/>
</g>
</svg>
