<?xml version="1.0" encoding="UTF-8"?>
<svg xmlns="http://www.w3.org/2000/svg" xmlns:xlink="http://www.w3.org/1999/xlink" width="61px" height="18px" viewBox="0 0 61 18" version="1.1">
<g id="surface1">
<path style=" stroke:none;fill-rule:nonzero;fill:rgb(4.705882%,9.019608%,14.117648%);fill-opacity:1;" d="M 6.464844 10.898438 C 6.464844 11.300781 6.378906 11.671875 6.210938 12.019531 C 6.039062 12.359375 5.800781 12.648438 5.5 12.886719 C 5.191406 13.125 4.832031 13.308594 4.410156 13.441406 C 3.992188 13.574219 3.53125 13.640625 3.03125 13.640625 C 2.429688 13.640625 1.894531 13.558594 1.421875 13.394531 C 0.953125 13.234375 0.476562 12.960938 0 12.582031 L 0.789062 11.304688 C 1.164062 11.621094 1.503906 11.851562 1.808594 12 C 2.113281 12.144531 2.421875 12.214844 2.742188 12.214844 C 3.132812 12.214844 3.445312 12.117188 3.6875 11.914062 C 3.925781 11.710938 4.039062 11.441406 4.039062 11.097656 C 4.039062 10.953125 4.015625 10.816406 3.972656 10.6875 C 3.929688 10.558594 3.851562 10.429688 3.738281 10.292969 C 3.625 10.160156 3.464844 10.007812 3.261719 9.851562 C 3.0625 9.695312 2.804688 9.5 2.484375 9.269531 C 2.242188 9.097656 2.003906 8.917969 1.773438 8.738281 C 1.542969 8.554688 1.335938 8.363281 1.140625 8.152344 C 0.953125 7.945312 0.800781 7.714844 0.683594 7.457031 C 0.570312 7.203125 0.511719 6.902344 0.511719 6.578125 C 0.511719 6.203125 0.589844 5.851562 0.746094 5.539062 C 0.902344 5.230469 1.117188 4.964844 1.390625 4.742188 C 1.664062 4.523438 1.988281 4.351562 2.375 4.230469 C 2.757812 4.105469 3.171875 4.046875 3.625 4.046875 C 4.101562 4.046875 4.558594 4.105469 5 4.234375 C 5.441406 4.363281 5.851562 4.546875 6.234375 4.789062 L 5.523438 5.941406 C 5.035156 5.601562 4.523438 5.429688 3.988281 5.429688 C 3.660156 5.429688 3.386719 5.511719 3.175781 5.683594 C 2.964844 5.851562 2.855469 6.066406 2.855469 6.324219 C 2.855469 6.570312 2.949219 6.792969 3.136719 6.984375 C 3.328125 7.183594 3.652344 7.453125 4.113281 7.808594 C 4.582031 8.148438 4.964844 8.453125 5.269531 8.707031 C 5.574219 8.960938 5.816406 9.207031 5.992188 9.433594 C 6.171875 9.660156 6.289062 9.886719 6.359375 10.121094 C 6.433594 10.363281 6.464844 10.617188 6.464844 10.898438 Z M 14.546875 8.746094 C 14.546875 9.097656 14.507812 9.480469 14.433594 9.890625 C 14.359375 10.300781 14.234375 10.679688 14.054688 11.027344 C 13.875 11.375 13.644531 11.664062 13.359375 11.886719 C 13.070312 12.113281 12.703125 12.226562 12.265625 12.226562 C 11.53125 12.226562 10.949219 11.933594 10.527344 11.34375 C 10.101562 10.757812 9.890625 9.953125 9.890625 8.929688 C 9.890625 7.875 10.101562 7.046875 10.535156 6.429688 C 10.964844 5.8125 11.546875 5.503906 12.285156 5.503906 C 12.980469 5.503906 13.53125 5.796875 13.9375 6.371094 C 14.34375 6.953125 14.546875 7.746094 14.546875 8.746094 Z M 17.097656 8.65625 C 17.097656 7.972656 17 7.347656 16.804688 6.792969 C 16.609375 6.230469 16.335938 5.75 15.972656 5.34375 C 15.609375 4.9375 15.183594 4.625 14.691406 4.398438 C 14.195312 4.175781 13.648438 4.0625 13.050781 4.0625 C 12.390625 4.0625 11.8125 4.1875 11.3125 4.433594 C 10.8125 4.683594 10.347656 5.074219 9.921875 5.613281 L 9.910156 4.277344 L 7.558594 4.277344 L 7.558594 17.996094 L 9.90625 17.996094 L 9.90625 12.203125 C 10.136719 12.472656 10.355469 12.699219 10.574219 12.882812 C 10.785156 13.066406 11.003906 13.214844 11.222656 13.328125 C 11.445312 13.441406 11.675781 13.527344 11.921875 13.574219 C 12.164062 13.621094 12.429688 13.644531 12.707031 13.644531 C 13.328125 13.644531 13.914062 13.519531 14.449219 13.273438 C 14.988281 13.023438 15.453125 12.675781 15.84375 12.222656 C 16.234375 11.769531 16.542969 11.238281 16.765625 10.640625 C 16.988281 10.035156 17.097656 9.371094 17.097656 8.65625 Z M 18.144531 13.425781 L 20.554688 13.425781 L 20.554688 0 L 18.144531 0 Z M 30.84375 13.429688 L 30.84375 4.269531 L 28.433594 4.269531 L 28.433594 9.199219 C 28.433594 9.636719 28.414062 9.976562 28.375 10.214844 C 28.339844 10.457031 28.277344 10.667969 28.191406 10.867188 C 27.851562 11.621094 27.226562 12.003906 26.316406 12.003906 C 25.605469 12.003906 25.109375 11.75 24.828125 11.234375 C 24.714844 11.042969 24.640625 10.820312 24.597656 10.574219 C 24.554688 10.328125 24.53125 9.976562 24.53125 9.507812 L 24.53125 4.269531 L 22.121094 4.269531 L 22.121094 9.472656 C 22.121094 9.828125 22.125 10.128906 22.128906 10.371094 C 22.132812 10.609375 22.152344 10.832031 22.175781 11.019531 C 22.199219 11.210938 22.226562 11.378906 22.261719 11.527344 C 22.289062 11.671875 22.335938 11.8125 22.398438 11.945312 C 22.617188 12.507812 22.972656 12.933594 23.46875 13.21875 C 23.960938 13.507812 24.570312 13.648438 25.285156 13.648438 C 25.929688 13.648438 26.5 13.535156 26.992188 13.308594 C 27.480469 13.082031 27.957031 12.714844 28.417969 12.199219 L 28.421875 13.425781 L 30.84375 13.433594 Z M 41.238281 13.425781 L 41.238281 8.230469 C 41.238281 7.875 41.234375 7.574219 41.230469 7.324219 C 41.226562 7.074219 41.210938 6.855469 41.183594 6.671875 C 41.160156 6.488281 41.125 6.328125 41.09375 6.191406 C 41.054688 6.050781 41.011719 5.914062 40.964844 5.78125 C 40.746094 5.234375 40.390625 4.808594 39.898438 4.511719 C 39.402344 4.214844 38.792969 4.0625 38.074219 4.0625 C 37.429688 4.0625 36.859375 4.175781 36.367188 4.402344 C 35.878906 4.628906 35.402344 5.003906 34.941406 5.511719 L 34.9375 4.285156 L 32.507812 4.285156 L 32.507812 13.425781 L 34.941406 13.425781 L 34.941406 8.492188 C 34.941406 8.066406 34.953125 7.730469 34.988281 7.496094 C 35.015625 7.261719 35.078125 7.039062 35.160156 6.824219 C 35.316406 6.457031 35.5625 6.183594 35.886719 5.996094 C 36.210938 5.808594 36.597656 5.710938 37.050781 5.710938 C 37.761719 5.710938 38.257812 5.96875 38.539062 6.480469 C 38.648438 6.675781 38.722656 6.898438 38.765625 7.136719 C 38.808594 7.378906 38.832031 7.734375 38.832031 8.199219 L 38.832031 13.414062 L 41.238281 13.417969 Z M 51.21875 12.820312 L 47.546875 8.25 L 50.648438 4.917969 L 48.820312 4.132812 L 45.589844 7.882812 L 45.335938 7.882812 L 45.335938 0 L 42.902344 0 L 42.902344 13.425781 L 45.335938 13.425781 L 45.335938 8.5625 L 48.972656 13.609375 Z M 60.613281 9.535156 L 60.613281 8.042969 L 53.304688 4.371094 L 53.304688 6.015625 L 58.96875 8.777344 L 53.304688 11.574219 L 53.304688 13.183594 Z M 54.015625 1.996094 C 53.566406 1.996094 53.203125 2.363281 53.203125 2.816406 C 53.203125 3.28125 53.566406 3.644531 54.015625 3.644531 C 54.46875 3.644531 54.824219 3.28125 54.824219 2.816406 C 54.824219 2.359375 54.46875 1.996094 54.015625 1.996094 Z M 54.019531 2.125 C 54.382812 2.125 54.675781 2.433594 54.675781 2.820312 C 54.675781 3.210938 54.382812 3.519531 54.019531 3.515625 C 53.652344 3.515625 53.359375 3.210938 53.359375 2.816406 C 53.359375 2.4375 53.652344 2.125 54.019531 2.125 Z M 53.863281 2.902344 L 53.960938 2.902344 C 54.082031 2.902344 54.136719 2.945312 54.160156 3.0625 C 54.179688 3.1875 54.203125 3.265625 54.222656 3.292969 L 54.378906 3.292969 C 54.363281 3.265625 54.339844 3.210938 54.320312 3.066406 C 54.300781 2.929688 54.25 2.859375 54.164062 2.847656 L 54.164062 2.835938 C 54.265625 2.808594 54.34375 2.734375 54.34375 2.613281 C 54.34375 2.53125 54.316406 2.464844 54.257812 2.425781 C 54.203125 2.382812 54.113281 2.355469 53.976562 2.355469 C 53.867188 2.355469 53.792969 2.363281 53.71875 2.378906 L 53.71875 3.292969 L 53.863281 3.292969 Z M 53.863281 2.476562 C 53.886719 2.472656 53.921875 2.46875 53.96875 2.46875 C 54.132812 2.46875 54.1875 2.550781 54.1875 2.628906 C 54.1875 2.742188 54.085938 2.785156 53.96875 2.785156 L 53.863281 2.785156 Z M 53.863281 2.476562 "/>
</g>
</svg>
