<svg xmlns="http://www.w3.org/2000/svg" width="300" height="58" viewBox="0 0 298 58"><path style="stroke:none;fill-rule:evenodd;fill:#040404;fill-opacity:1" d="M76.18 10.996c-5.102.594-8.27 2.492-9.137 5.469-.246.86-.32 1.61-.219 2.312.594 4.121 3.778 5.739 12.418 6.305 8.945.582 10.54.863 11.723 2.047.578.578.648.777.539 1.57-.336 2.535-3.895 3.848-10.453 3.856-4.285.008-7.235-.399-11.27-1.563-1.457-.418-2.683-.762-2.726-.762-.176 0-1.04 2.954-.938 3.215.246.64 6.442 2.168 10.676 2.633 2.758.3 7.89.129 10.187-.344 5.891-1.21 8.707-3.89 8.34-7.933-.355-3.942-3.402-5.578-11.3-6.082-8.235-.528-10.235-.801-11.817-1.617-1.082-.563-1.516-1.188-1.516-2.188 0-1.047.438-1.629 1.711-2.277 2.165-1.106 2.809-1.149 19.227-1.246l15.39-.09.06 10.71.058 10.708 1.847.062 1.848.067V14.332h12.555l-.067-1.734-.062-1.739-22.727-.027c-12.5-.012-23.457.059-24.347.164m49.199 12.293v12.543l13.824-.055 13.828-.058.063-1.735.066-1.738h-23.972v-7.39h21.042V21.05h-21.042v-6.719h23.3l-.066-1.734-.063-1.739-13.492-.054-13.488-.059V23.29m30.226 0v12.543h25.973v-3.586H159.41V10.75h-3.805v12.54m28.536-12.263c-.059.157-.078 5.774-.047 12.485l.058 12.207 12.93.058 12.93.055v-3.586h-22.168V10.75h-1.797c-1.23 0-1.832.086-1.906.277m34.703 11.758c-4.164 6.621-7.719 12.266-7.895 12.543l-.32.504 2.21-.008 2.208-.008 6.605-10.285c3.633-5.656 6.657-10.285 6.72-10.285.058.004 3.03 4.633 6.6 10.293l6.497 10.29h2.086c1.61.003 2.07-.067 2.015-.294-.039-.16-3.547-5.8-7.789-12.539l-7.719-12.246h-3.644l-7.574 12.035m27.886.512v12.55l1.844-.066 1.848-.062.117-21.414 9.008.07c8.101.063 9.101.11 9.902.473 1.149.515 1.887 1.203 2.274 2.109.394.922.394 3 0 3.941-.325.782-1.426 1.825-2.368 2.243-.367.164-3.093.297-7.625.37l-7.054.114 2.574 1.785c1.418.985 5.332 3.73 8.703 6.102l6.125 4.32h2.887c1.586 0 2.879-.078 2.875-.168-.004-.094-2.727-2.035-6.05-4.312l-6.044-4.145 1.676-.156c4.004-.371 6.305-1.66 7.703-4.309.55-1.043.598-1.34.598-3.82 0-2.488-.043-2.77-.606-3.836-.77-1.461-1.73-2.418-3.144-3.133-2.188-1.11-3.239-1.195-14.664-1.2l-10.579-.003v12.547m37.208 18.586c-1.54.937-1.977 3.238-.903 4.75.938 1.312 2.98 1.699 4.399.836.75-.457 1.601-1.942 1.601-2.793 0-.852-.851-2.336-1.601-2.793-.973-.594-2.524-.594-3.497 0m-110.972.504c-1.781 1.008-2.3 2.617-2.082 6.465.097 1.656.21 2.136.703 2.875 1.617 2.449 5.504 2.406 6.957-.07.77-1.313.73-1.493-.3-1.493-.704 0-1.032.152-1.661.781-1.004 1.004-1.871 1.043-2.894.133l-.731-.656v-5.445l.758-.68c.64-.57.883-.656 1.566-.55.508.081 1.04.382 1.422.808.492.55.793.68 1.535.68.75 0 .899-.067.79-.352a1.943 1.943 0 0 1-.137-.555c0-.344-1.387-1.789-2.04-2.129-.96-.496-2.84-.406-3.886.188m23.273 3.07 1.684 3.355v4.708h1.789v-4.708l1.68-3.355 1.683-3.355h-1.96l-1.094 2.351c-.602 1.293-1.153 2.352-1.223 2.352-.074 0-.617-1.059-1.207-2.352l-1.074-2.351h-1.957l1.68 3.355m23.624 2.355v5.708h2.965c2.547 0 3.07-.063 3.684-.438 1.855-1.133 2.105-3.672.496-5.031-.64-.535-.649-.563-.211-.797 1.125-.602 1.418-2.649.566-3.95-.625-.952-1.601-1.202-4.695-1.202h-2.805v5.71m25.524 0v5.708h7.386v-1.567h-5.37v-3.36h4.699v-1.566h-4.7v-3.359h5.371v-1.566h-7.386v5.71m24.851-.019v5.727h2.016v-4.926h2.008l1.156 2.465 1.152 2.46h2.207l-2.57-4.89.738-.621c1.743-1.465 1.793-3.676.125-5.235-.57-.535-.75-.566-3.715-.632l-3.117-.075v5.727m14.157-5.258c-.825.516-1.172 1.23-1.172 2.395 0 1.386 1.636 2.578 3.05 2.222.325-.082.88-.437 1.23-.793.524-.52.645-.836.645-1.664 0-2.035-2.062-3.218-3.753-2.16m-.051 2.14c0 1.735.039 1.903.433 1.903.34 0 .45-.18.504-.824l.07-.828.56.824c.308.453.734.828.952.828.496 0 .489-.125-.043-.871-.425-.602-.425-.61 0-.879.489-.305.586-1.367.164-1.789-.148-.144-.8-.266-1.457-.266h-1.183v1.903m.894-.785c0 .37.117.464.504.41.278-.04.504-.223.504-.41 0-.184-.226-.368-.504-.407-.387-.054-.504.04-.504.407m-63.363 1.343v1.57h1.426c1.715 0 2.605-.534 2.605-1.57 0-1.03-.89-1.566-2.605-1.566h-1.426v1.566m50.379.09v1.703h1.535c1.89 0 2.719-.504 2.719-1.652 0-1.3-.41-1.578-2.445-1.672l-1.81-.082v1.703m-50.378 4.84v1.79h1.578c1.379 0 1.649-.071 2.129-.552.344-.343.547-.804.547-1.238 0-.437-.203-.898-.547-1.242-.48-.48-.75-.55-2.129-.55h-1.578v1.792"/><path style="stroke:none;fill-rule:evenodd;fill:#f6a52b;fill-opacity:1" d="M18.203 6.77c-3.476 3.718-6.281 6.796-6.238 6.84.043.042 3.195-1.485 7.004-3.391l6.93-3.465 5.335 2.453c2.934 1.348 5.414 2.422 5.508 2.387.098-.031-2.199-2.656-5.097-5.828L26.375 0l-.93.004c-.93.008-.937.016-7.242 6.766m16.723-.864c0 .078 2.922 1.602 6.492 3.387l6.492 3.246-.379.953c-.207.524-1.004 2.465-1.77 4.313-.761 1.847-1.347 3.398-1.3 3.449.098.101 11.426-8.395 11.629-8.723.07-.113.066-.539-.008-.941l-.14-.735-10.114-2.44A2650.418 2650.418 0 0 1 35.32 5.87c-.215-.055-.394-.039-.394.035m-18.133 9.446c-5.48 1.027-11.383 2.128-13.121 2.453l-3.156.59-.262 1.148c-.238 1.02-.223 1.187.133 1.523.59.559 20.699 15.243 21.07 15.383.258.098.25.02-.031-.418-6.403-9.933-10.403-16.449-10.172-16.574.152-.082 3.754-1.383 8-2.895 7.07-2.511 8.734-3.171 7.824-3.101-.176.016-4.805.863-10.285 1.89M54.055 18.7c.715 10.606.855 13.117.738 13.235-.074.074-3.676-1.043-8-2.485-4.324-1.445-7.914-2.574-7.973-2.515-.058.062 4.836 3.656 10.88 7.988 7.64 5.476 11.105 7.836 11.37 7.746.215-.07.703-.406 1.086-.742l.696-.61-4.215-11.644c-2.32-6.406-4.325-11.848-4.453-12.094-.18-.336-.211-.058-.13 1.121M23.876 37.977c-1.82 8.203-3.277 14.933-3.238 14.96.039.024.605.481 1.254 1.012l1.18.965 13.038-7.332c15.5-8.723 16.118-9.078 16.004-9.195-.05-.047-5.12 1.062-11.265 2.468-6.149 1.407-11.215 2.52-11.262 2.473-.043-.047-.547-4.621-1.121-10.172-.57-5.55-1.09-10.09-1.156-10.09-.067 0-1.61 6.711-3.434 14.91"/></svg>